<svg width="292" height="290" viewBox="0 0 292 290" fill="none" xmlns="http://www.w3.org/2000/svg">
<rect width="292" height="290" fill="#1F1F1F"/>
<g filter="url(#filter0_d_68_179)">
<g clip-path="url(#clip0_68_179)">
<rect x="-44" y="-141" width="375" height="812" rx="20" fill="white"/>
<path d="M236.775 145.267C184.92 115.02 101.133 115.02 49.6165 145.267C-1.89995 175.514 -1.62443 224.564 50.225 254.811C102.074 285.058 185.873 285.064 237.389 254.811C288.906 224.559 288.624 175.52 236.775 145.267Z" fill="#F5F5F5"/>
<path d="M129.982 254.243L52.4119 208.98L67.9157 199.897L145.503 245.189L129.982 254.243Z" fill="#E6E6E6"/>
<path d="M209.952 210.975V210.969L165.41 184.985H165.415L120.873 159.001L76.3305 133.017L32.0809 159.001L76.6175 184.985L121.16 210.969V210.975L165.702 236.959H165.697L210.239 262.943L254.494 236.959L209.952 210.975Z" fill="#E6E6E6"/>
<path d="M243.583 233.931L240.931 231.727C240.764 227.505 240.604 223.027 241.298 218.88C241.993 214.733 243.594 210.586 246.567 207.588C247.802 206.329 249.334 205.268 251.079 205.059C252.824 204.85 254.764 205.743 255.367 207.408C255.97 209.073 255.045 211.045 254.035 212.593C251.888 215.893 249.323 218.904 247.216 222.233C245 225.738 243.746 229.775 243.583 233.931Z" fill="#2C557D"/>
<path d="M243.583 234.506L246.235 236.71C248.198 232.528 250.901 228.648 254.638 225.968C255.971 225.129 257.217 224.158 258.357 223.068C259.425 221.908 260.171 220.307 259.861 218.759C259.465 216.763 257.37 215.447 255.355 215.435C253.341 215.424 251.458 216.456 249.902 217.755C245.098 221.693 242.377 228.387 243.583 234.506Z" fill="#2C557D"/>
<path opacity="0.3" d="M243.583 234.506L246.235 236.71C248.198 232.528 250.901 228.648 254.638 225.968C255.971 225.129 257.217 224.158 258.357 223.068C259.425 221.908 260.171 220.307 259.861 218.759C259.465 216.763 257.37 215.447 255.355 215.435C253.341 215.424 251.458 216.456 249.902 217.755C245.098 221.693 242.377 228.387 243.583 234.506Z" fill="black"/>
<path d="M242.084 232.922C242.023 232.921 241.965 232.895 241.922 232.851C241.879 232.806 241.855 232.746 241.855 232.684C241.964 226.42 243.359 214.844 251.464 207.744C251.487 207.724 251.513 207.709 251.542 207.699C251.571 207.689 251.602 207.685 251.632 207.688C251.662 207.69 251.692 207.698 251.719 207.712C251.747 207.725 251.771 207.744 251.791 207.768C251.811 207.791 251.826 207.818 251.836 207.847C251.845 207.876 251.849 207.907 251.847 207.938C251.845 207.968 251.837 207.998 251.823 208.026C251.81 208.053 251.791 208.078 251.768 208.098C248.324 211.097 242.584 218.289 242.314 232.713C242.308 232.771 242.282 232.824 242.239 232.863C242.197 232.901 242.142 232.922 242.084 232.922Z" fill="white"/>
<path d="M244.868 235.805C244.838 235.802 244.809 235.793 244.782 235.779C244.755 235.764 244.732 235.744 244.712 235.721C244.693 235.697 244.679 235.67 244.67 235.64C244.661 235.611 244.659 235.58 244.662 235.55C245.201 229.918 247.635 222.157 256.142 217.187C256.195 217.157 256.258 217.15 256.317 217.166C256.376 217.182 256.426 217.221 256.457 217.274C256.473 217.3 256.483 217.33 256.487 217.36C256.491 217.391 256.489 217.422 256.481 217.452C256.473 217.481 256.459 217.509 256.44 217.533C256.421 217.558 256.398 217.578 256.371 217.593C248.037 222.459 245.649 230.069 245.115 235.573C245.116 235.605 245.11 235.637 245.098 235.667C245.086 235.697 245.067 235.723 245.044 235.745C245.021 235.767 244.993 235.784 244.963 235.794C244.932 235.805 244.9 235.808 244.868 235.805Z" fill="white"/>
<path d="M35.6799 131.991C34.6409 130.987 33.4527 129.891 33.3839 128.441C33.3875 127.791 33.5874 127.159 33.9566 126.627C34.3259 126.095 34.847 125.69 35.4502 125.466C36.0591 125.257 36.7033 125.175 37.3444 125.224C37.9855 125.272 38.6102 125.451 39.1813 125.75C40.3184 126.356 41.3313 127.175 42.1661 128.163C44.6815 130.986 46.5024 134.37 47.4807 138.038C48.4591 141.706 48.5675 145.556 47.797 149.275C47.7736 149.526 47.6963 149.77 47.5704 149.988C47.4445 150.206 47.2731 150.394 47.068 150.539C46.3735 150.91 45.5813 150.255 45.1107 149.623C44.0739 148.229 43.296 146.657 42.8147 144.983C42.3956 143.573 42.5851 142.025 42.0627 140.696C40.7827 137.46 38.1538 134.38 35.6799 131.991Z" fill="#2C557D"/>
<path d="M46.494 148.637C46.4576 148.637 46.4215 148.631 46.3877 148.617C46.3539 148.603 46.3232 148.583 46.2975 148.557C46.2717 148.531 46.2515 148.5 46.2379 148.466C46.2243 148.432 46.2177 148.395 46.2185 148.358C46.1844 144.285 45.2541 140.271 43.4949 136.607C41.7357 132.942 39.1917 129.719 36.0472 127.171C36.0183 127.148 35.9942 127.12 35.9762 127.088C35.9582 127.056 35.9467 127.02 35.9424 126.983C35.9382 126.947 35.9412 126.909 35.9513 126.874C35.9614 126.838 35.9784 126.805 36.0013 126.776C36.0232 126.747 36.0507 126.723 36.082 126.705C36.1134 126.687 36.148 126.675 36.1839 126.671C36.2198 126.667 36.2561 126.67 36.2908 126.68C36.3255 126.69 36.3578 126.707 36.3859 126.73C39.5979 129.329 42.1964 132.619 43.9925 136.36C45.7886 140.102 46.7373 144.2 46.7696 148.358C46.7703 148.395 46.7637 148.432 46.7502 148.466C46.7366 148.5 46.7163 148.531 46.6906 148.557C46.6649 148.583 46.6342 148.603 46.6004 148.617C46.5666 148.631 46.5304 148.637 46.494 148.637Z" fill="white"/>
<path d="M43.0787 159.773C41.3567 160.353 39.1296 159.97 38.1193 158.421C36.9254 156.6 37.6716 153.781 36.0759 152.32C35.1862 151.496 33.8717 151.415 32.6893 151.16C31.5069 150.904 30.1867 150.255 30.0145 149.043C29.7791 147.442 31.7365 146.114 31.4552 144.513C31.1739 142.912 29.0329 142.448 28.3958 140.986C27.8218 139.658 28.8435 138.046 30.1981 137.547C31.5528 137.048 33.0681 137.39 34.4113 137.901C35.7545 138.411 37.0747 139.061 38.5039 139.252C39.9332 139.444 41.7068 139.142 42.8032 140.174C44.2611 141.555 43.4288 144.188 44.5539 145.853C45.3116 146.972 46.7408 147.361 47.8314 148.173C48.5097 148.669 49.0603 149.323 49.4368 150.078C49.8134 150.834 50.0049 151.671 49.9954 152.517C49.961 154.355 49.0024 155.678 47.6363 156.733C46.1783 157.835 44.8753 159.187 43.0787 159.773Z" fill="#2C557D"/>
<path opacity="0.2" d="M43.0787 159.773C41.3567 160.353 39.1296 159.97 38.1193 158.421C36.9254 156.6 37.6716 153.781 36.0759 152.32C35.1862 151.496 33.8717 151.415 32.6893 151.16C31.5069 150.904 30.1867 150.255 30.0145 149.043C29.7791 147.442 31.7365 146.114 31.4552 144.513C31.1739 142.912 29.0329 142.448 28.3958 140.986C27.8218 139.658 28.8435 138.046 30.1981 137.547C31.5528 137.048 33.0681 137.39 34.4113 137.901C35.7545 138.411 37.0747 139.061 38.5039 139.252C39.9332 139.444 41.7068 139.142 42.8032 140.174C44.2611 141.555 43.4288 144.188 44.5539 145.853C45.3116 146.972 46.7408 147.361 47.8314 148.173C48.5097 148.669 49.0603 149.323 49.4368 150.078C49.8134 150.834 50.0049 151.671 49.9954 152.517C49.961 154.355 49.0024 155.678 47.6363 156.733C46.1783 157.835 44.8753 159.187 43.0787 159.773Z" fill="black"/>
<path d="M42.2866 147.239V147.21C42.0225 146.827 41.7528 146.45 41.4658 146.085C38.877 142.845 35.3668 140.487 31.4093 139.328C31.3742 139.316 31.3373 139.312 31.3006 139.316C31.264 139.319 31.2284 139.33 31.1961 139.348C31.1639 139.366 31.1356 139.39 31.113 139.42C31.0904 139.449 31.0741 139.483 31.0649 139.519C31.0452 139.591 31.054 139.667 31.0894 139.732C31.1248 139.797 31.184 139.845 31.2543 139.867C35.0967 140.995 38.5032 143.289 41.0123 146.438C41.0927 146.537 41.1615 146.641 41.2362 146.74C38.1021 145.58 34.9222 146.241 33.2002 147.627C33.1717 147.65 33.148 147.679 33.1305 147.711C33.1131 147.744 33.1022 147.779 33.0984 147.816C33.0947 147.853 33.0982 147.89 33.1088 147.925C33.1193 147.961 33.1367 147.993 33.16 148.022C33.1849 148.055 33.2171 148.081 33.254 148.099C33.2908 148.117 33.3314 148.127 33.3724 148.126C33.437 148.125 33.4996 148.103 33.5503 148.062C35.2379 146.688 38.7163 146.079 41.879 147.622C43.8536 150.544 45.0135 153.95 45.2369 157.482C45.2413 157.552 45.2723 157.619 45.3235 157.667C45.3747 157.716 45.4423 157.743 45.5125 157.743C45.5487 157.74 45.5841 157.731 45.6167 157.715C45.6493 157.699 45.6784 157.676 45.7024 157.649C45.7264 157.621 45.7448 157.589 45.7565 157.555C45.7683 157.52 45.7731 157.483 45.7708 157.447C45.5427 153.789 44.3387 150.261 42.2866 147.239Z" fill="white"/>
<path d="M76.9332 120.785L40.6851 142.071L40.6392 159.958L77.1227 181.238L113.365 159.958L113.417 142.071L76.9332 120.785Z" fill="#2C557D"/>
<path opacity="0.2" d="M113.417 142.071L76.9332 120.785L40.6851 142.071L77.1686 163.351L113.417 142.071Z" fill="white"/>
<path opacity="0.3" d="M77.1686 163.351L77.1227 181.238L113.365 159.958L113.417 142.071L77.1686 163.351Z" fill="black"/>
<path d="M120.242 123.198L83.9934 144.484L83.9475 185.223L120.431 206.509L156.679 185.223L156.725 144.484L120.242 123.198Z" fill="#2C557D"/>
<path opacity="0.2" d="M156.725 144.484L120.242 123.198L83.9934 144.484L120.477 165.77L156.725 144.484Z" fill="white"/>
<path opacity="0.3" d="M120.477 165.77L120.431 206.509L156.679 185.223L156.725 144.484L120.477 165.77Z" fill="black"/>
<path d="M164.595 125.79L128.346 147.071L128.301 210.981L164.784 232.267L201.026 210.981L201.078 147.071L164.595 125.79Z" fill="#2C557D"/>
<path opacity="0.2" d="M201.078 147.071L164.595 125.79L128.346 147.071L164.83 168.357L201.078 147.071Z" fill="white"/>
<path opacity="0.3" d="M164.83 168.357L164.784 232.267L201.026 210.981L201.078 147.071L164.83 168.357Z" fill="black"/>
<path d="M164.618 125.622L128.369 146.902L128.323 210.894L164.807 232.18L201.049 210.894L201.101 146.902L164.618 125.622Z" fill="#2C557D"/>
<path opacity="0.2" d="M201.101 146.902L164.617 125.622L128.369 146.902L164.853 168.188L201.101 146.902Z" fill="white"/>
<path opacity="0.3" d="M164.853 168.188L164.807 232.18L201.049 210.894L201.101 146.902L164.853 168.188Z" fill="black"/>
<path d="M209.975 119.37L173.733 140.656L173.681 237.469L210.164 258.755L246.412 237.469L246.458 140.656L209.975 119.37Z" fill="#2C557D"/>
<path opacity="0.2" d="M246.458 140.656L209.975 119.37L173.733 140.656L210.216 161.942L246.458 140.656Z" fill="white"/>
<path opacity="0.3" d="M210.216 161.942L210.164 258.755L246.413 237.469L246.458 140.656L210.216 161.942Z" fill="black"/>
<path d="M143.707 144.89L141.204 143.196L122.319 181.929L124.799 183.622L135.889 177.155C135.407 195.361 130.407 204.491 125.557 209.734L124.782 209.931L124.328 210.035L123.421 210.233L123.014 210.32L122.319 210.447L121.809 210.534L121.074 210.65L120.586 210.726C120.316 210.766 120.012 210.795 119.765 210.83L119.335 210.888L118.187 211.004H118.066C117.647 211.045 117.222 211.074 116.798 211.103C116.258 211.143 115.713 211.166 115.162 211.19H114.668H113.468H112.98C112.32 211.19 111.654 211.19 110.989 211.155H110.644C110.024 211.155 109.404 211.097 108.779 211.056H108.463C107.826 211.01 107.189 210.958 106.546 210.888L106.087 210.842C105.513 210.778 104.939 210.714 104.365 210.639L104.026 210.592C103.4 210.505 102.775 210.412 102.143 210.308L101.69 210.227C101.173 210.14 100.662 210.047 100.146 209.948L99.6636 209.856C99.0494 209.734 98.4295 209.6 97.8038 209.461L97.5226 209.397C96.9888 209.276 96.4492 209.142 95.9096 209.009L95.3356 208.87L93.8949 208.487L93.4529 208.365C92.8387 208.191 92.2188 208.011 91.5989 207.82L91.1684 207.686C90.6939 207.543 90.2175 207.393 89.7391 207.234L89.1651 207.037L87.7703 206.555L87.2824 206.387C86.6702 206.167 86.056 205.941 85.4399 205.709L85.107 205.575C84.5961 205.384 84.0853 205.181 83.5744 204.995L83.0004 204.752L81.6802 204.201L81.1062 203.951L79.3842 203.203L79.2235 203.133C78.6035 202.849 77.9779 202.553 77.358 202.263L76.784 202.002C76.3363 201.788 75.8828 201.567 75.4351 201.341L74.8151 201.034C74.3387 200.796 73.868 200.552 73.3916 200.303L72.9152 200.059L71.0382 199.05C70.6938 198.87 70.3552 198.679 70.0165 198.47C69.8386 198.372 69.6606 198.279 69.4884 198.174L67.9673 197.31L67.9214 197.281L52.4119 206.434V208.98C70.0337 219.228 87.2939 224.106 102.35 223.097C109.508 222.621 115.615 220.852 120.586 217.836C120.465 217.912 120.345 217.993 120.219 218.063L135.774 208.928C137.155 208.119 138.468 207.198 139.7 206.173C139.867 206.039 140.039 205.894 140.205 205.749L140.354 205.622L140.751 205.268L140.888 205.146L141.411 204.665L141.497 204.578L141.939 204.154L142.099 203.998L142.536 203.551L142.639 203.441C142.817 203.255 142.995 203.07 143.173 202.861C143.213 202.809 143.259 202.762 143.305 202.71C143.443 202.559 143.58 202.403 143.718 202.24L143.873 202.055C144.045 201.857 144.212 201.654 144.378 201.446L144.413 201.405C144.591 201.185 144.769 200.958 144.941 200.726C144.992 200.657 145.044 200.593 145.09 200.523C145.228 200.344 145.36 200.158 145.498 199.972L145.641 199.769L146.158 199.004C146.184 198.968 146.209 198.932 146.232 198.894L146.559 198.389L146.657 198.227L146.904 197.815C147.007 197.647 147.11 197.478 147.208 197.304L147.455 196.869L147.748 196.336L147.994 195.872C148.086 195.686 148.184 195.501 148.276 195.292L148.517 194.81C148.557 194.718 148.597 194.636 148.643 194.549C148.689 194.462 148.787 194.236 148.855 194.074L148.959 193.853C149.108 193.517 149.257 193.169 149.406 192.815C149.435 192.74 149.47 192.653 149.504 192.577C149.619 192.282 149.739 191.997 149.854 191.684L149.963 191.388C149.963 191.319 150.015 191.255 150.044 191.191L150.164 190.837C150.279 190.518 150.388 190.199 150.497 189.875C150.56 189.689 150.623 189.498 150.681 189.295C150.784 188.97 150.887 188.645 150.985 188.309C151.019 188.187 151.06 188.077 151.094 187.955C151.128 187.833 151.14 187.775 151.169 187.688C151.243 187.421 151.318 187.143 151.392 186.864C151.467 186.586 151.513 186.4 151.576 186.163C151.639 185.925 151.714 185.583 151.783 185.293C151.829 185.119 151.869 184.95 151.909 184.771C151.909 184.701 151.944 184.62 151.955 184.55C152.012 184.295 152.064 184.04 152.121 183.785L152.294 182.938C152.345 182.671 152.391 182.404 152.437 182.137C152.483 181.871 152.518 181.737 152.552 181.557C152.552 181.459 152.581 181.36 152.598 181.262L152.718 180.508C152.77 180.189 152.816 179.864 152.862 179.533C152.908 179.203 152.937 179.011 152.971 178.744C152.971 178.565 153.023 178.391 153.046 178.205L153.097 177.724C153.126 177.463 153.16 177.207 153.183 176.941C153.224 176.587 153.258 176.221 153.292 175.862C153.321 175.595 153.344 175.328 153.367 175.056L153.401 174.684C153.401 174.423 153.442 174.151 153.459 173.884C153.476 173.617 153.499 173.374 153.511 173.113C153.511 172.678 153.562 172.231 153.585 171.784C153.585 171.552 153.585 171.326 153.62 171.094C153.62 171.048 153.62 171.001 153.62 170.955C153.62 170.375 153.66 169.754 153.677 169.145V169C153.677 168.333 153.677 167.649 153.677 166.959C153.677 166.889 153.677 166.825 153.677 166.756L162.718 161.484L143.707 144.89Z" fill="#455A64"/>
<path d="M143.707 144.89L124.822 183.622L122.343 181.929L141.204 143.196L143.707 144.89ZM121.476 217.262C121.814 217.042 122.142 216.816 122.469 216.578L122.859 216.299C123.29 215.98 123.714 215.656 124.128 215.313L124.627 214.884L124.776 214.757L125.109 214.467L125.172 214.409L125.31 214.287C125.482 214.13 125.66 213.968 125.832 213.8L125.924 213.713L126.062 213.585L126.366 213.289L126.521 213.133C126.556 213.098 126.59 213.057 126.63 213.022L126.957 212.692L127.061 212.582L127.422 212.193L127.595 212.007L127.727 211.862L128.14 211.387L128.301 211.201L128.461 211.01L128.806 210.592C128.808 210.579 128.808 210.565 128.806 210.552C128.857 210.494 128.903 210.43 128.949 210.372C129.081 210.209 129.208 210.041 129.34 209.873L129.489 209.676L129.793 209.252L129.891 209.119L130.034 208.916L130.327 208.487L130.556 208.156C130.578 208.115 130.603 208.077 130.631 208.04L130.82 207.733C130.901 207.617 130.975 207.495 131.05 207.373C131.125 207.251 131.217 207.101 131.303 206.961C131.389 206.822 131.504 206.625 131.601 206.451C131.699 206.277 131.768 206.161 131.854 206.016L132.043 205.668L132.146 205.482L132.388 205.018C132.451 204.902 132.508 204.781 132.571 204.659L132.675 204.456C132.755 204.299 132.83 204.137 132.91 203.974L132.95 203.887L133.254 203.244C133.289 203.168 133.317 203.093 133.352 203.023C133.449 202.809 133.541 202.582 133.639 202.362C133.69 202.234 133.748 202.113 133.8 201.985C133.851 201.857 133.868 201.817 133.897 201.736C134.018 201.446 134.132 201.156 134.247 200.854C134.287 200.75 134.322 200.651 134.362 200.552C134.402 200.454 134.448 200.315 134.494 200.193L134.563 200.001C134.672 199.682 134.787 199.363 134.89 199.039C134.942 198.899 134.988 198.749 135.034 198.604L135.08 198.47C135.183 198.145 135.28 197.821 135.384 197.484V197.444C135.441 197.252 135.499 197.061 135.55 196.864C135.602 196.666 135.7 196.318 135.774 196.04C135.774 196.04 135.774 195.994 135.774 195.965C135.826 195.756 135.883 195.553 135.935 195.338C136.009 195.054 136.078 194.758 136.147 194.468L136.319 193.726C136.377 193.476 136.428 193.215 136.48 192.96C136.515 192.804 136.543 192.647 136.578 192.49C136.612 192.334 136.629 192.241 136.652 192.113C136.704 191.847 136.756 191.58 136.802 191.313C136.848 191.064 136.893 190.814 136.934 190.559C136.934 190.513 136.934 190.466 136.934 190.414C136.98 190.165 137.02 189.915 137.054 189.66C137.106 189.341 137.157 189.016 137.203 188.691L137.307 187.897C137.353 187.56 137.399 187.218 137.439 186.876L137.525 186.099C137.565 185.739 137.599 185.38 137.634 185.014C137.634 184.747 137.686 184.481 137.708 184.214C137.737 183.825 137.772 183.431 137.795 183.054C137.795 182.799 137.835 182.543 137.852 182.282C137.881 181.847 137.904 181.401 137.927 180.954C137.927 180.722 137.927 180.502 137.961 180.264C137.99 179.626 138.007 178.971 138.024 178.309C138.024 178.263 138.024 178.217 138.024 178.17C138.024 177.428 138.024 176.662 138.024 175.885L135.803 177.178C135.321 195.385 130.321 204.514 125.471 209.757C124.486 210.816 123.436 211.809 122.325 212.732C121.065 213.774 119.721 214.707 118.307 215.522C118.055 215.667 117.796 215.806 117.538 215.946L117.039 216.212C116.763 216.357 116.465 216.491 116.195 216.624L115.724 216.85C115.374 217.013 115.013 217.164 114.651 217.314L114.513 217.372C114.002 217.581 113.491 217.778 112.969 217.952C112.694 218.051 112.395 218.138 112.131 218.231L111.643 218.393C111.293 218.503 110.931 218.608 110.57 218.706L110.03 218.851C109.732 218.933 109.422 219.014 109.112 219.083L108.48 219.228C108.14 219.31 107.795 219.385 107.447 219.455L107.177 219.501L106.064 219.704L105.582 219.779L104.629 219.913L104.101 219.982L103.119 220.093L102.631 220.145C102.149 220.191 101.661 220.232 101.168 220.261C100.674 220.29 100.048 220.325 99.4858 220.348H99.0324C98.6363 220.348 98.2403 220.348 97.8385 220.348H97.3448C96.6847 220.348 96.0246 220.348 95.353 220.313H95.2555C94.5552 220.313 93.8549 220.249 93.1546 220.203H92.8447C92.1903 220.156 91.5302 220.098 90.8701 220.029H90.7668C90.1124 219.959 89.4523 219.884 88.7865 219.797L88.4478 219.75C87.7016 219.646 86.9554 219.53 86.2035 219.402H86.1116L84.5676 219.124L84.0912 219.031C83.4712 218.909 82.8513 218.776 82.2314 218.637L81.9501 218.573C81.4106 218.451 80.871 218.324 80.3315 218.184L79.7575 218.045C79.281 217.923 78.7989 217.796 78.3225 217.662H78.2765C77.5303 217.454 76.7784 217.239 76.0265 217.013L75.5902 216.874C75.0162 216.7 74.4422 216.52 73.8682 216.334C73.2942 216.149 72.7202 215.957 72.1462 215.754L71.6583 215.586C71.0269 215.36 70.3898 215.122 69.7584 214.884L69.4771 214.774L67.9503 214.194L67.3763 213.95C66.8023 213.713 66.2283 213.463 65.6198 213.214L65.5567 213.185C64.9827 212.935 64.3743 212.674 63.783 212.408L63.7142 212.28C63.0942 211.996 62.4743 211.7 61.8544 211.416L61.2804 211.149C60.8327 210.936 60.385 210.716 59.9372 210.488L59.3116 210.18C58.7892 209.919 58.2669 209.647 57.7446 209.374L57.4116 209.206C56.786 208.875 56.1603 208.545 55.5347 208.203L54.5015 207.623L53.9906 207.338C53.4683 207.043 52.9402 206.758 52.4178 206.439V208.986C70.0396 219.234 87.2998 224.112 102.356 223.103C109.514 222.627 115.621 220.858 120.592 217.842C120.747 217.755 120.896 217.662 121.045 217.564C121.195 217.465 121.327 217.361 121.476 217.262Z" fill="#37474F"/>
<path opacity="0.2" d="M54.4955 207.64L55.5287 208.22C56.1544 208.562 56.7801 208.893 57.4057 209.223L57.7386 209.392C58.261 209.664 58.7833 209.937 59.3057 210.198L59.9313 210.505C60.379 210.729 60.8268 210.95 61.2745 211.166L61.8485 211.433C62.4684 211.729 63.0883 212.013 63.7082 212.297L63.8632 212.367C64.4372 212.634 65.0457 212.895 65.6369 213.144L65.7 213.173C66.274 213.423 66.848 213.672 67.4565 213.91L68.0305 214.153L69.5573 214.733L69.8386 214.844C70.47 215.081 71.1071 215.319 71.7385 215.545L72.2264 215.714C72.8004 215.917 73.3744 216.108 73.9484 216.294C74.5224 216.479 75.0964 216.659 75.6704 216.833L76.1066 216.972C76.8586 217.198 77.6105 217.413 78.3567 217.622H78.4026C78.8791 217.755 79.3612 217.883 79.8376 218.005L80.4116 218.144C80.9512 218.283 81.4908 218.411 82.0303 218.532L82.3116 218.596C82.9315 218.735 83.5514 218.869 84.1713 218.991L84.6478 219.083L86.1918 219.362H86.2837C87.0356 219.489 87.7818 219.605 88.528 219.71L88.8667 219.756C89.5325 219.843 90.1926 219.919 90.847 219.988H90.9503C91.6104 220.058 92.2705 220.116 92.9248 220.162H93.2348C93.9351 220.209 94.6354 220.249 95.3356 220.272H95.4332C96.1048 220.272 96.7649 220.307 97.425 220.307H97.9186C98.3204 220.307 98.7165 220.307 99.1126 220.307H99.566C100.14 220.307 100.714 220.261 101.248 220.22C101.782 220.18 102.229 220.151 102.712 220.104L103.199 220.052L104.181 219.942L104.709 219.872L105.662 219.739L106.144 219.663L107.258 219.46L107.527 219.414C107.876 219.344 108.22 219.269 108.561 219.188L109.192 219.043C109.502 218.973 109.812 218.892 110.11 218.811L110.65 218.666C111.012 218.567 111.373 218.463 111.723 218.353L112.211 218.19C112.493 218.097 112.785 218.01 113.049 217.912C113.572 217.726 114.082 217.529 114.593 217.332L114.731 217.274C115.093 217.123 115.454 216.972 115.804 216.81L116.275 216.584C116.556 216.45 116.849 216.317 117.119 216.172L117.618 215.905C117.877 215.766 118.135 215.627 118.387 215.482C119.801 214.666 121.145 213.733 122.405 212.692C123.516 211.769 124.566 210.775 125.551 209.716L124.776 209.914L124.323 210.018L123.416 210.215L123.008 210.302L122.314 210.43L121.803 210.517L121.068 210.633L120.58 210.708C120.31 210.749 120.006 210.778 119.759 210.813L119.329 210.871L118.181 210.987H118.06C117.641 211.027 117.217 211.056 116.792 211.085C116.252 211.126 115.707 211.149 115.156 211.172H114.662H113.463H112.975C112.315 211.172 111.649 211.172 110.983 211.137H110.638C110.019 211.137 109.399 211.079 108.773 211.039H108.457C107.82 210.992 107.183 210.94 106.54 210.871L106.081 210.824C105.507 210.76 104.933 210.697 104.359 210.621L104.02 210.575C103.395 210.488 102.769 210.395 102.138 210.291L101.684 210.209C101.167 210.122 100.657 210.03 100.14 209.931L99.6579 209.838C99.0437 209.716 98.4238 209.583 97.7981 209.444L97.5168 209.38C96.983 209.258 96.4435 209.125 95.9039 208.991L95.3299 208.852L93.8892 208.469L93.4472 208.348C92.833 208.174 92.2131 207.994 91.5932 207.802L91.1627 207.669C90.6882 207.526 90.2117 207.375 89.7334 207.217L89.1594 207.019L87.7646 206.538L87.2767 206.37C86.6644 206.149 86.0502 205.923 85.4341 205.691L85.1012 205.558C84.5904 205.366 84.0795 205.163 83.5686 204.978L82.9946 204.734L81.6744 204.183L81.1004 203.934L79.3784 203.186L79.2177 203.116C78.5978 202.832 77.9721 202.536 77.3522 202.246L76.7782 201.985C76.3305 201.77 75.8771 201.55 75.4293 201.324L74.8094 201.016C74.333 200.779 73.8623 200.535 73.3859 200.286L72.9095 200.042L71.0325 199.033C70.6881 198.853 70.3494 198.662 70.0108 198.453C69.8328 198.354 69.6549 198.261 69.4827 198.157L67.9616 197.293L67.9157 197.264L52.4119 206.434C52.9343 206.741 53.4623 207.014 53.9847 207.333L54.4955 207.64Z" fill="white"/>
<path d="M41.2419 46.0462C43.7904 44.5614 45.9429 45.2922 46.6317 47.6006C47.2415 46.3328 48.1873 45.2606 49.364 44.5034C51.3615 43.3434 52.9859 44.2772 52.9917 46.5914V47.6586L55.678 46.0926C57.0785 45.2806 58.2151 45.936 58.2208 47.56C58.1735 48.4447 57.9201 49.3056 57.4812 50.0726C57.0423 50.8396 56.4304 51.491 55.6952 51.9738L33.005 65.221C31.6044 66.033 30.4679 65.3834 30.4622 63.7594C30.5077 62.8735 30.7603 62.0111 31.1993 61.2429C31.6383 60.4747 32.2512 59.8225 32.9878 59.3398L35.6683 57.7738V55.8192C35.6511 52.229 38.1538 47.8558 41.2419 46.0462Z" fill="#E6E6E6"/>
<path d="M63.4901 54.723C65.3212 53.6616 66.8653 54.1836 67.3589 55.8424C67.7993 54.9289 68.4831 54.1576 69.3335 53.6152C70.7627 52.78 71.9337 53.4528 71.9337 55.1174V55.883L73.8566 54.7578C74.8611 54.1778 75.6762 54.6418 75.6762 55.8076C75.6445 56.4432 75.464 57.0621 75.1497 57.6136C74.8354 58.1651 74.3962 58.6335 73.8681 58.9802L57.5722 68.4864C56.5677 69.0664 55.7526 68.6024 55.7469 67.4366C55.782 66.8011 55.9644 66.1829 56.2795 65.6318C56.5946 65.0807 57.0334 64.6121 57.5607 64.264L59.4836 63.1446V61.7352C59.5572 60.33 59.9585 58.9623 60.6548 57.7437C61.351 56.525 62.3226 55.49 63.4901 54.723Z" fill="#E6E6E6"/>
<path d="M248.8 51.939C246.969 50.8718 245.425 51.3938 244.932 53.0526C244.491 52.1407 243.807 51.3713 242.957 50.8312C241.528 49.996 240.357 50.6688 240.357 52.3334V53.0932L238.434 51.9738C237.429 51.3938 236.614 51.8578 236.614 53.0236C236.646 53.6592 236.826 54.2781 237.141 54.8296C237.455 55.3811 237.894 55.8495 238.422 56.1962L254.718 65.7024C255.723 66.2824 256.538 65.8184 256.544 64.6526C256.508 64.0171 256.326 63.3989 256.011 62.8478C255.696 62.2967 255.257 61.8282 254.73 61.48L252.807 60.3548V58.9512C252.731 57.5464 252.329 56.1794 251.633 54.9611C250.937 53.7427 249.967 52.7074 248.8 51.939Z" fill="#E6E6E6"/>
<path d="M147.845 35.3802C147.846 35.3011 147.825 35.2232 147.786 35.1549C147.747 35.0865 147.69 35.0301 147.621 34.9916L145.635 33.8722C145.57 33.834 145.496 33.8139 145.42 33.8139C145.344 33.8139 145.27 33.834 145.205 33.8722L131.584 41.8182C131.333 41.9562 131.131 42.1715 131.01 42.433C130.934 42.6067 130.895 42.7943 130.895 42.984V48.0996L126.177 53.0296C125.758 53.4704 125.712 54.1374 126.039 54.2418L127.922 55.2858C127.953 55.3212 127.992 55.3478 128.037 55.363C128.081 55.3783 128.128 55.3817 128.174 55.3728L130.912 55.0364V58.7948C130.912 58.8723 130.932 58.9486 130.97 59.0158C131.009 59.083 131.064 59.1388 131.13 59.1776L133.111 60.2854H133.139C133.201 60.3179 133.27 60.3349 133.34 60.3349C133.41 60.3349 133.479 60.3179 133.541 60.2854L147.162 52.3336C147.364 52.2164 147.532 52.0475 147.649 51.8438C147.766 51.6402 147.828 51.409 147.828 51.1736L147.845 35.3802ZM133.248 43.187L133.202 43.2392L133.248 43.187ZM133.116 43.3552C133.119 43.3705 133.119 43.3862 133.116 43.4016C133.119 43.3862 133.119 43.3705 133.116 43.3552ZM132.927 43.8076C132.929 43.8269 132.929 43.8463 132.927 43.8656C132.929 43.8463 132.929 43.8269 132.927 43.8076ZM133.346 43.0884L133.392 43.0478L133.346 43.0884Z" fill="#2C557D"/>
<path opacity="0.1" d="M132.938 59.9082C132.939 59.9842 132.958 60.0589 132.996 60.1249C133.033 60.191 133.086 60.2462 133.151 60.2852L131.171 59.16C131.104 59.1212 131.049 59.0654 131.011 58.9982C130.972 58.931 130.952 58.8548 130.952 58.7772V55.0188L132.944 54.7752L132.938 59.9082Z" fill="black"/>
<path opacity="0.2" d="M131.567 41.8122L145.188 33.8662C145.253 33.828 145.327 33.8079 145.403 33.8079C145.478 33.8079 145.553 33.828 145.618 33.8662L147.604 34.9856C147.537 34.9458 147.461 34.9249 147.383 34.9249C147.305 34.9249 147.229 34.9458 147.162 34.9856L133.558 42.92C133.301 43.0663 133.099 43.2948 132.984 43.5696L131.004 42.4096C131.126 42.1563 131.322 41.9476 131.567 41.8122Z" fill="white"/>
<path opacity="0.1" d="M130.918 48.0936V42.978C130.918 42.7883 130.957 42.6007 131.033 42.427L133.013 43.587C132.946 43.7506 132.913 43.9262 132.915 44.1032V49.2246L130.924 48.0994L130.918 48.0936Z" fill="black"/>
<path opacity="0.05" d="M126.2 53.0236L130.918 48.0936L132.91 49.2188L128.197 54.143C127.83 54.52 127.749 55.071 127.945 55.303L126.062 54.259C125.735 54.1314 125.781 53.4644 126.2 53.0236Z" fill="white"/>
<path d="M141.026 42.2066C141.07 42.1722 141.123 42.1536 141.178 42.1536C141.233 42.1536 141.287 42.1722 141.33 42.2066L143.999 44.7876C144.189 44.9674 143.999 45.4894 143.701 45.6692L142.226 46.5276L142.26 52.6582L139.895 54.0386L139.861 47.908L138.386 48.7664C138.076 48.952 137.898 48.6388 138.081 48.2444L140.722 42.5604C140.789 42.4162 140.894 42.2937 141.026 42.2066Z" fill="white"/>
<path opacity="0.1" d="M139.275 140.54C138.374 138.411 136.497 136.393 133.65 134.74C125.356 129.897 111.953 129.897 103.71 134.74C95.4677 139.583 95.5136 147.424 103.808 152.262C110.466 156.148 120.419 156.902 128.346 154.553V147.071L139.275 140.54Z" fill="black"/>
<path d="M89.412 86.8318L99.0839 79.199L100.025 80.9158L90.2098 88.6936L89.412 86.8318Z" fill="#263238"/>
<path d="M107.194 93.699L112.625 93.2002C111.936 96.6802 110.725 101.506 110.725 101.506L105.719 98.2578L107.194 93.699Z" fill="#455A64"/>
<path d="M77.4097 116.151C77.4038 114.895 77.8072 113.672 78.5577 112.671C79.1551 111.981 79.7874 111.323 80.4519 110.699C80.9272 110.237 81.2889 109.669 81.508 109.04C81.7184 108.317 82.0316 107.63 82.4379 106.998C82.8902 106.269 83.6002 105.74 84.4239 105.519C84.5851 105.481 84.7525 105.476 84.9155 105.506C85.0785 105.536 85.2336 105.6 85.371 105.693L85.2103 105.49C85.0673 105.308 84.8755 105.171 84.6577 105.096C84.4399 105.021 84.2053 105.011 83.982 105.067C83.1385 105.288 82.4124 105.831 81.9557 106.581C81.5354 107.22 81.2141 107.92 81.0029 108.657C80.7862 109.316 80.4161 109.913 79.9238 110.397C79.2463 111.033 78.6025 111.705 77.9951 112.41C77.2273 113.428 76.8118 114.673 76.8127 115.954C76.7922 116.217 76.8243 116.483 76.9071 116.734C76.99 116.985 77.1218 117.217 77.2949 117.415C77.498 117.597 77.7534 117.709 78.0238 117.734C77.9704 117.701 77.9204 117.662 77.8746 117.618C77.7016 117.419 77.571 117.186 77.491 116.933C77.4111 116.681 77.3834 116.415 77.4097 116.151Z" fill="black"/>
<path d="M85.6351 105.902C85.5615 105.81 85.4744 105.73 85.3768 105.664C85.2393 105.571 85.0842 105.507 84.9212 105.477C84.7582 105.447 84.5909 105.452 84.4297 105.49C83.6059 105.711 82.8959 106.24 82.4436 106.969C82.0328 107.609 81.7175 108.307 81.508 109.04C81.2946 109.683 80.9325 110.266 80.4518 110.739C79.7873 111.363 79.1551 112.022 78.5576 112.711C77.8072 113.713 77.4038 114.935 77.4096 116.191C77.3889 116.45 77.4199 116.71 77.5007 116.956C77.5816 117.202 77.7107 117.429 77.8803 117.624C77.9261 117.668 77.9761 117.706 78.0296 117.74C78.2204 117.855 78.4344 117.926 78.6559 117.947C78.8774 117.968 79.1007 117.939 79.3096 117.862C79.7869 117.674 80.2039 117.357 80.515 116.945C80.8422 116.557 81.089 116.122 81.4391 115.727C81.9983 115.1 82.6239 114.536 83.3046 114.045L85.1472 112.619L85.9852 106.413C85.9852 106.413 85.8302 106.14 85.6351 105.902Z" fill="#263238"/>
<path d="M98.7739 104.858L98.4926 112.52C95.0486 108.994 86.0828 105.705 86.0828 105.705C82.6847 108.234 83.4424 111.14 84.7166 112.52C91.7424 116.383 99.7669 121.58 101.604 121.15C103.441 120.721 105.874 117.902 107.659 112.59L104.215 106.616L98.7739 104.858Z" fill="#37474F"/>
<path d="M123.089 145.998C123.014 146.154 122.909 146.294 122.78 146.408C122.651 146.523 122.5 146.61 122.337 146.665C122.012 146.774 121.674 146.834 121.332 146.844C120.593 146.923 119.847 146.911 119.111 146.81C118.372 146.71 117.675 146.407 117.096 145.934C116.598 145.442 116.166 144.886 115.81 144.281C114.86 142.877 113.682 141.645 112.326 140.638C112.361 140.889 112.411 141.137 112.475 141.381C113.78 142.355 114.908 143.55 115.81 144.913C116.167 145.519 116.599 146.077 117.096 146.572C117.677 147.043 118.373 147.346 119.111 147.448C119.848 147.543 120.593 147.555 121.332 147.482C121.674 147.47 122.012 147.408 122.337 147.297C122.5 147.242 122.651 147.155 122.78 147.041C122.909 146.926 123.014 146.786 123.089 146.63C123.185 146.394 123.199 146.132 123.129 145.887C123.118 145.925 123.104 145.962 123.089 145.998Z" fill="#263238"/>
<path d="M122.784 144.6C122.444 144.24 122.058 143.928 121.636 143.672C119.766 142.383 118.371 140.505 117.67 138.33L112.401 138.632C112.167 139.276 112.141 139.978 112.326 140.638C113.682 141.645 114.86 142.877 115.81 144.281C116.166 144.886 116.598 145.442 117.096 145.934C117.675 146.407 118.372 146.71 119.111 146.81C119.847 146.911 120.593 146.923 121.332 146.844C121.674 146.834 122.012 146.774 122.337 146.665C122.5 146.61 122.651 146.523 122.78 146.408C122.909 146.294 123.014 146.154 123.089 145.998C123.105 145.962 123.118 145.925 123.129 145.887C123.179 145.661 123.173 145.425 123.113 145.201C123.053 144.977 122.94 144.77 122.784 144.6Z" fill="#37474F"/>
<path d="M95.1405 92.655C93.9925 98.281 94.4345 100.775 98.7739 104.835C103.113 108.895 110.254 114.695 110.254 114.695C108.532 120.42 111.103 127.954 111.201 130.86C111.299 133.765 112.005 138.678 112.005 138.678C115.965 140.824 118.089 138.678 118.089 138.678V113.442C118.091 111.228 117.297 109.089 115.856 107.422L107.194 97.44V93.7164L95.1405 92.655Z" fill="#455A64"/>
<path d="M125.672 77.8128C126.422 78.0652 127.223 78.123 128.002 77.981C128.002 76.4614 128.002 74.762 128.123 72.5522C128.404 67.7846 127.129 65.1572 126.079 64.206C125.029 63.2548 123.209 63.2374 122.537 63.8406C121.866 64.4438 123.513 66.6362 123.749 68.5444C122.807 67.4308 122.331 67.0538 121.453 67.7324C121.971 68.3408 122.361 69.0492 122.601 69.8146C122.79 70.7716 123.8 71.4386 124.082 72.2274C124.3 72.8422 124.082 74.8084 123.72 76.4962C124.25 77.0951 124.921 77.5481 125.672 77.8128Z" fill="#F28F8F"/>
<path opacity="0.2" d="M125.672 77.8128C126.422 78.0652 127.223 78.123 128.002 77.981C128.002 76.4614 128.002 74.762 128.123 72.5522C128.404 67.7846 127.129 65.1572 126.079 64.206C125.029 63.2548 123.209 63.2374 122.537 63.8406C121.866 64.4438 123.513 66.6362 123.749 68.5444C122.807 67.4308 122.331 67.0538 121.453 67.7324C121.971 68.3408 122.361 69.0492 122.601 69.8146C122.79 70.7716 123.8 71.4386 124.082 72.2274C124.3 72.8422 124.082 74.8084 123.72 76.4962C124.25 77.0951 124.921 77.5481 125.672 77.8128Z" fill="black"/>
<path d="M125.672 77.8128C124.915 77.5508 124.237 77.0975 123.703 76.4962C123.599 77.0008 123.485 77.4822 123.37 77.8882C123.37 77.8882 119.725 72.8364 118.904 71.8794C118.083 70.9224 117.331 68.643 113.738 68.2196L114.169 77.1284C114.169 77.1284 121.407 85.4514 123.886 86.855C126.366 88.2586 127.193 86.4374 127.698 83.0676C127.924 81.3821 128.019 79.6815 127.985 77.981C127.212 78.12 126.417 78.0622 125.672 77.8128Z" fill="#455A64"/>
<path opacity="0.3" d="M122.836 83.2822C122.262 81.2116 123.117 78.6422 123.41 77.8882L122.79 77.0298C122.336 78.0096 122.105 79.0795 122.113 80.1612C122.121 81.243 122.368 82.3093 122.836 83.2822Z" fill="black"/>
<path d="M103.067 68.0282C100.99 67.744 98.7739 68.0978 96.5066 68.4806C96.0892 73.4616 96.0892 78.4694 96.5066 83.4504L94.71 93.177C101.742 97.469 110.707 95.5608 112.504 94.337C115.334 83.1836 116.04 72.645 113.755 68.237L108.165 67.28L103.067 68.0282Z" fill="#37474F"/>
<path d="M107.55 72.3666L105.909 71.05C106.426 70.7963 106.963 70.5886 107.516 70.4294L108.165 70.7542L107.55 72.3666Z" fill="#2C557D"/>
<path d="M109.313 72.2274L109.674 72.0012L110.283 70.6672L109.577 70.4294L109.158 70.7542L109.313 72.2274Z" fill="#2C557D"/>
<path d="M107.992 73.283C106.753 78.2594 100.978 81.5016 96.2196 81.1536C95.5445 81.0902 94.8686 81.2666 94.3082 81.6524C93.6086 82.1622 92.9877 82.774 92.4657 83.4678C92.3975 83.5606 92.351 83.6679 92.3297 83.7815C92.3084 83.895 92.3128 84.012 92.3426 84.1236C92.3724 84.2353 92.4269 84.3386 92.5019 84.4259C92.5769 84.5132 92.6705 84.5823 92.7756 84.6278C93.829 85.0546 94.9157 85.3922 96.0245 85.637C97.1823 85.9083 98.3895 85.8763 99.5316 85.5442C108.182 83.0154 109.381 77.4242 109.146 73.2772L107.992 73.283Z" fill="#2C557D"/>
<path opacity="0.3" d="M109.158 73.5034C109.158 73.428 109.158 73.3526 109.158 73.283H108.01C108.01 73.283 108.01 73.3294 108.01 73.3526C108.173 73.4902 108.372 73.5769 108.584 73.602C108.78 73.6195 108.978 73.5856 109.158 73.5034Z" fill="black"/>
<path d="M108.165 70.76C108.494 70.7078 108.829 70.7078 109.158 70.76C109.438 71.1208 109.617 71.5518 109.674 72.007C109.589 72.467 109.409 72.9037 109.146 73.2888C108.848 73.515 107.998 73.2888 107.998 73.2888C107.779 72.9959 107.587 72.6833 107.424 72.355C107.374 72.253 107.349 72.1409 107.349 72.0273C107.349 71.9137 107.374 71.8016 107.424 71.6996C107.6 71.3357 107.853 71.015 108.165 70.76Z" fill="#2C557D"/>
<path opacity="0.3" d="M111.293 96.0712C110.41 97.1557 109.172 97.8843 107.803 98.1244L110.725 101.5C110.418 100.43 109.924 99.4245 109.267 98.5304C110.192 97.9584 110.904 97.094 111.293 96.0712Z" fill="black"/>
<path d="M108.612 70.6034C109.944 70.2438 110.794 71.7634 110.794 71.7634C110.874 68.4632 109.181 67.1988 109.181 67.1988L108.612 70.6034Z" fill="#455A64"/>
<path d="M102.941 54.2996C102.367 53.8994 101.753 53.505 101.156 53.1106C101.305 52.9278 101.493 52.7809 101.705 52.6805C101.918 52.5802 102.15 52.529 102.384 52.5306C102.652 52.5517 102.901 52.6764 103.079 52.8786C103.253 53.087 103.341 53.3547 103.326 53.6268C103.383 52.548 104.302 51.5794 105.26 51.1096C106.248 50.6845 107.328 50.5266 108.394 50.6514C109.456 50.721 110.512 50.9298 111.574 50.9646C112.806 51.0116 114.036 50.8368 115.208 50.4484C115.337 50.4045 115.476 50.397 115.609 50.4266C115.742 50.4563 115.865 50.522 115.964 50.6168C116.063 50.7116 116.135 50.8318 116.171 50.9646C116.208 51.0973 116.208 51.2377 116.172 51.3706C115.967 52.0554 115.623 52.6895 115.162 53.2324C115.408 53.3032 115.664 53.3307 115.919 53.3136C116.057 53.3042 116.195 53.3334 116.318 53.3982C116.441 53.463 116.544 53.5608 116.615 53.6807C116.686 53.8007 116.723 53.9382 116.722 54.0781C116.721 54.218 116.681 54.3549 116.608 54.4736C116.139 55.1674 115.478 55.7061 114.708 56.0222C111.878 60.5346 104.25 64.5656 104.25 64.5656C103.992 64.5311 103.746 64.4339 103.533 64.2824C103.32 64.1309 103.146 63.9296 103.027 63.6956C102.8 63.2213 102.654 62.7113 102.597 62.1876C102.268 60.2117 101.998 58.2262 101.787 56.231C101.712 55.8108 101.73 55.3791 101.839 54.9666C101.899 54.7686 102.018 54.5945 102.181 54.4686C102.344 54.3428 102.541 54.2715 102.746 54.2648" fill="#263238"/>
<path d="M103.682 61.2828C103.475 63.1446 103.067 66.3578 103.067 66.3578C104.675 68.5502 107.786 69.0316 108.612 70.6034C109.146 68.8574 109.494 67.0589 109.651 65.2384L104.342 61.0218L103.682 61.2828Z" fill="#F28F8F"/>
<path opacity="0.2" d="M103.682 61.2828C103.475 63.1446 103.067 66.3578 103.067 66.3578C104.675 68.5502 107.786 69.0316 108.612 70.6034C109.146 68.8574 109.494 67.0589 109.651 65.2384L104.342 61.0218L103.682 61.2828Z" fill="black"/>
<path opacity="0.3" d="M104.342 61.0218L104.204 61.074C104.137 62.5735 104.632 64.0433 105.589 65.1911C106.546 66.3388 107.896 67.0805 109.37 67.2684C109.582 66.0098 109.628 65.2384 109.628 65.2384L104.342 61.0218Z" fill="black"/>
<path d="M114.708 56.0338C115.108 59.1343 114.768 62.2865 113.715 65.2268C113.58 65.5913 113.338 65.9053 113.02 66.1262C112.703 66.3471 112.327 66.4644 111.941 66.4622C107.924 66.4622 104.732 65.0702 104.175 61.451C103.973 61.7116 103.692 61.8989 103.376 61.9846C103.059 62.0704 102.723 62.05 102.419 61.9266C101.848 61.6607 101.39 61.198 101.127 60.6216C100.957 60.3226 100.844 59.9941 100.794 59.653C100.745 59.3079 100.83 58.9569 101.03 58.6728C101.216 58.4626 101.464 58.3169 101.737 58.2566C102.01 58.1962 102.294 58.2241 102.551 58.3364C103.072 58.5731 103.483 59.0029 103.699 59.537C103.785 59.7342 103.9 59.972 104.112 59.9778C104.325 59.9836 104.457 59.7342 104.525 59.5254C104.78 58.6744 104.891 57.7862 104.853 56.898C105.489 57.0204 106.148 56.894 106.695 56.5442C107.226 56.176 107.596 55.6151 107.728 54.9782C107.899 55.3051 108.144 55.5862 108.443 55.798C108.743 56.0099 109.088 56.1464 109.45 56.1962C109.803 56.2448 110.162 56.2075 110.497 56.0875C110.833 55.9674 111.135 55.768 111.379 55.506C111.793 55.9331 112.333 56.2138 112.917 56.3064C113.528 56.3919 114.15 56.2972 114.708 56.0338Z" fill="#F28F8F"/>
<path opacity="0.2" d="M114.708 56.0338C115.108 59.1343 114.768 62.2865 113.715 65.2268C113.58 65.5913 113.338 65.9053 113.02 66.1262C112.703 66.3471 112.327 66.4644 111.941 66.4622C107.924 66.4622 104.732 65.0702 104.175 61.451C103.973 61.7116 103.692 61.8989 103.376 61.9846C103.059 62.0704 102.723 62.05 102.419 61.9266C101.848 61.6607 101.39 61.198 101.127 60.6216C100.957 60.3226 100.844 59.9941 100.794 59.653C100.745 59.3079 100.83 58.9569 101.03 58.6728C101.216 58.4626 101.464 58.3169 101.737 58.2566C102.01 58.1962 102.294 58.2241 102.551 58.3364C103.072 58.5731 103.483 59.0029 103.699 59.537C103.785 59.7342 103.9 59.972 104.112 59.9778C104.325 59.9836 104.457 59.7342 104.525 59.5254C104.78 58.6744 104.891 57.7862 104.853 56.898C105.489 57.0204 106.148 56.894 106.695 56.5442C107.226 56.176 107.596 55.6151 107.728 54.9782C107.899 55.3051 108.144 55.5862 108.443 55.798C108.743 56.0099 109.088 56.1464 109.45 56.1962C109.803 56.2448 110.162 56.2075 110.497 56.0875C110.833 55.9674 111.135 55.768 111.379 55.506C111.793 55.9331 112.333 56.2138 112.917 56.3064C113.528 56.3919 114.15 56.2972 114.708 56.0338Z" fill="black"/>
<path d="M111.04 59.5486L112.883 61.8976L111.138 62.4834L111.04 59.5486Z" fill="#F28F8F"/>
<path opacity="0.3" d="M111.04 59.5486L112.883 61.8976L111.138 62.4834L111.04 59.5486Z" fill="black"/>
<path d="M109.531 63.597L110.983 64.0784C110.887 64.2509 110.739 64.3871 110.559 64.4667C110.38 64.5462 110.18 64.5646 109.99 64.5192C109.821 64.4414 109.683 64.3076 109.6 64.1398C109.516 63.9721 109.492 63.7806 109.531 63.597Z" fill="#F28F8F"/>
<path opacity="0.3" d="M109.531 63.597L110.983 64.0784C110.887 64.2509 110.739 64.3871 110.559 64.4667C110.38 64.5462 110.18 64.5646 109.99 64.5192C109.821 64.4414 109.683 64.3076 109.6 64.1398C109.516 63.9721 109.492 63.7806 109.531 63.597Z" fill="black"/>
<path d="M110.466 64.496C110.311 64.5422 110.145 64.5422 109.99 64.496C109.856 64.4405 109.741 64.3467 109.66 64.2261C109.578 64.1055 109.533 63.9634 109.531 63.8174C109.73 63.7886 109.932 63.8295 110.105 63.9334C110.199 63.9986 110.279 64.0818 110.341 64.1783C110.403 64.2749 110.446 64.3828 110.466 64.496Z" fill="#F28F8F"/>
<path d="M108.486 60.0068C108.487 60.0756 108.502 60.1434 108.53 60.2062C108.558 60.2691 108.598 60.3257 108.648 60.3727C108.697 60.4197 108.756 60.4562 108.82 60.48C108.884 60.5038 108.952 60.5145 109.02 60.5114C109.124 60.509 109.224 60.4754 109.309 60.415C109.394 60.3545 109.459 60.2699 109.496 60.1719C109.533 60.074 109.54 59.9671 109.517 59.8649C109.493 59.7627 109.44 59.6699 109.365 59.5983C109.289 59.5267 109.194 59.4795 109.091 59.4627C108.989 59.446 108.884 59.4604 108.789 59.5042C108.695 59.5481 108.616 59.6193 108.562 59.7088C108.508 59.7983 108.481 59.902 108.486 60.0068Z" fill="#263238"/>
<path d="M112.808 59.6878C112.816 59.8263 112.876 59.9564 112.977 60.0506C113.078 60.1448 113.211 60.1956 113.348 60.1924C113.451 60.1889 113.551 60.1543 113.635 60.0932C113.719 60.0321 113.783 59.9471 113.82 59.8491C113.856 59.751 113.862 59.6444 113.838 59.5426C113.814 59.4409 113.761 59.3486 113.685 59.2776C113.609 59.2065 113.514 59.1599 113.412 59.1436C113.309 59.1273 113.205 59.142 113.111 59.186C113.017 59.2299 112.938 59.3011 112.884 59.3905C112.83 59.4798 112.804 59.5833 112.808 59.6878Z" fill="#263238"/>
<path d="M113.244 57.5824L114.421 58.348C114.467 58.202 114.467 58.0452 114.422 57.899C114.377 57.7527 114.288 57.624 114.169 57.5302C114.025 57.4517 113.862 57.4151 113.699 57.4243C113.536 57.4335 113.379 57.4882 113.244 57.5824Z" fill="#263238"/>
<path d="M108.802 57.6752L107.654 58.5162C107.599 58.3737 107.59 58.2179 107.626 58.0697C107.661 57.9214 107.741 57.7878 107.855 57.6868C107.994 57.5922 108.158 57.5408 108.326 57.5387C108.495 57.5366 108.66 57.5841 108.802 57.6752Z" fill="#263238"/>
<path d="M103.067 66.3578L103.171 65.5342C103.102 65.5251 103.033 65.5251 102.964 65.5342C102.39 65.8416 101.34 67.5178 101.34 67.5178C101.713 68.411 103.509 71.1892 104.921 72.1578C106.557 71.3284 107.74 70.1684 108.612 70.5918C108.274 68.672 103.067 66.3578 103.067 66.3578Z" fill="#455A64"/>
<path d="M99.876 96.9064C103.808 91.3384 112.458 78.445 111.93 67.9064L113.715 68.208C114.456 78.5842 106.316 92.1156 100.651 99.1336L99.876 96.9064Z" fill="#263238"/>
<path d="M98.6591 101.326L86.674 91.1064L84.5559 98.6464C84.5439 98.6946 84.5433 98.7449 84.5543 98.7933C84.5653 98.8417 84.5875 98.8868 84.6191 98.9248L84.6593 98.9596L96.4951 109.655C96.4553 109.615 96.4269 109.564 96.4128 109.509C96.3986 109.454 96.3993 109.396 96.4148 109.342L98.6591 101.326Z" fill="#2C557D"/>
<path opacity="0.15" d="M98.6591 101.326L86.674 91.1064L84.5559 98.6464C84.5439 98.6946 84.5433 98.7449 84.5543 98.7933C84.5653 98.8417 84.5875 98.8868 84.6191 98.9248L84.6593 98.9596L96.4951 109.655C96.4553 109.615 96.4269 109.564 96.4128 109.509C96.3986 109.454 96.3993 109.396 96.4148 109.342L98.6591 101.326Z" fill="black"/>
<path d="M98.1425 103.17L100.025 96.454L98.1425 103.17Z" fill="#2C557D"/>
<path d="M101.317 95.752L101.311 95.7464L101.317 95.7577V95.752Z" fill="#2C557D"/>
<path d="M96.4893 109.695H96.4949L96.4836 109.69L96.4893 109.695Z" fill="#2C557D"/>
<path d="M101.437 96.1118C101.445 96.0475 101.439 95.9821 101.418 95.9207C101.397 95.8594 101.362 95.8037 101.317 95.758C101.269 95.7127 101.211 95.6792 101.149 95.6601C101.086 95.6409 101.02 95.6368 100.955 95.6478C100.741 95.6846 100.541 95.7821 100.38 95.9289C100.218 96.0757 100.101 96.2659 100.042 96.4772L98.154 103.17L96.432 109.376C96.4165 109.431 96.4158 109.489 96.43 109.544C96.4441 109.599 96.4725 109.649 96.5124 109.69C96.5515 109.729 96.6005 109.757 96.6541 109.77C96.7077 109.783 96.7639 109.782 96.8166 109.765L99.1642 109.046C99.3404 108.993 99.4976 108.89 99.6168 108.749C99.7361 108.608 99.8121 108.435 99.8358 108.251L101.437 96.1118Z" fill="#2C557D"/>
<path opacity="0.3" d="M101.437 96.1118C101.445 96.0475 101.439 95.9821 101.418 95.9207C101.397 95.8594 101.362 95.8037 101.317 95.758C101.269 95.7127 101.211 95.6792 101.149 95.6601C101.086 95.6409 101.02 95.6368 100.955 95.6478C100.741 95.6846 100.541 95.7821 100.38 95.9289C100.218 96.0757 100.101 96.2659 100.042 96.4772L98.154 103.17L96.432 109.376C96.4165 109.431 96.4158 109.489 96.43 109.544C96.4441 109.599 96.4725 109.649 96.5124 109.69C96.5515 109.729 96.6005 109.757 96.6541 109.77C96.7077 109.783 96.7639 109.782 96.8166 109.765L99.1642 109.046C99.3404 108.993 99.4976 108.89 99.6168 108.749C99.7361 108.608 99.8121 108.435 99.8358 108.251L101.437 96.1118Z" fill="black"/>
<path d="M94.4459 96.9702L92.3221 104.661L92.6551 104.986L94.71 97.353L94.4459 96.9702Z" fill="#2C557D"/>
<path d="M89.9401 92.8986L87.822 100.595L88.1549 100.92L90.2099 93.2872L89.9401 92.8986Z" fill="#2C557D"/>
<path d="M89.4407 85.0338C89.3937 84.9912 89.3379 84.9597 89.2773 84.9417C89.2167 84.9236 89.1529 84.9194 89.0906 84.9294C88.8763 84.9662 88.6769 85.0637 88.5153 85.2105C88.3537 85.3573 88.2367 85.5475 88.1779 85.7588L86.5535 91.5588C86.4595 91.9018 86.4635 92.2646 86.5651 92.6054C86.6667 92.9462 86.8617 93.2509 87.1275 93.4844L88.3788 94.5806L96.897 102.08C97.0298 102.197 97.1899 102.279 97.3623 102.317C97.5347 102.354 97.7138 102.348 97.8829 102.297C98.052 102.246 98.2055 102.152 98.3292 102.025C98.4529 101.898 98.5427 101.741 98.5903 101.57L100.025 96.4656C100.084 96.2543 100.201 96.0641 100.363 95.9173C100.524 95.7705 100.724 95.673 100.938 95.6362C101.003 95.6251 101.069 95.6293 101.132 95.6485C101.194 95.6676 101.252 95.7011 101.3 95.7464L89.4407 85.0338Z" fill="#2C557D"/>
<path opacity="0.2" d="M89.4407 85.0338C89.3937 84.9912 89.3379 84.9597 89.2773 84.9417C89.2167 84.9236 89.1529 84.9194 89.0906 84.9294C88.8763 84.9662 88.6769 85.0637 88.5153 85.2105C88.3537 85.3573 88.2367 85.5475 88.1779 85.7588L86.5535 91.5588C86.4595 91.9018 86.4635 92.2646 86.5651 92.6054C86.6667 92.9462 86.8617 93.2509 87.1275 93.4844L88.3788 94.5806L96.897 102.08C97.0298 102.197 97.1899 102.279 97.3623 102.317C97.5347 102.354 97.7138 102.348 97.8829 102.297C98.052 102.246 98.2055 102.152 98.3292 102.025C98.4529 101.898 98.5427 101.741 98.5903 101.57L100.025 96.4656C100.084 96.2543 100.201 96.0641 100.363 95.9173C100.524 95.7705 100.724 95.673 100.938 95.6362C101.003 95.6251 101.069 95.6293 101.132 95.6485C101.194 95.6676 101.252 95.7011 101.3 95.7464L89.4407 85.0338Z" fill="white"/>
<path d="M82.082 85.5964L82.4666 91.4602C83.2874 97.3066 84.3551 98.2288 87.0012 99.0002C89.6474 99.7716 88.0976 96.4308 87.7532 95.8102C87.4998 95.2566 87.3203 94.6715 87.2193 94.0702C88.5223 95.265 88.8552 95.1374 89.3718 94.772C89.5785 94.6096 88.6027 93.7512 88.6027 93.7512C88.0857 92.6282 87.4131 91.5853 86.6052 90.654L86.9094 85.5848L82.082 85.5964Z" fill="#F28F8F"/>
<path opacity="0.2" d="M82.082 85.5964L82.4666 91.4602C83.2874 97.3066 84.3551 98.2288 87.0012 99.0002C89.6474 99.7716 88.0976 96.4308 87.7532 95.8102C87.4998 95.2566 87.3203 94.6715 87.2193 94.0702C88.5223 95.265 88.8552 95.1374 89.3718 94.772C89.5785 94.6096 88.6027 93.7512 88.6027 93.7512C88.0857 92.6282 87.4131 91.5853 86.6052 90.654L86.9094 85.5848L82.082 85.5964Z" fill="black"/>
<path d="M99.302 68.063C95.5768 67.4308 93.1258 69.3274 91.4268 70.4294C90.1984 71.2298 85.6868 74.6634 83.2874 76.502C82.8126 76.8662 82.4299 77.3388 82.1705 77.8812C81.9111 78.4235 81.7824 79.0202 81.795 79.6224L81.9271 85.8226C82.7196 86.2445 83.6083 86.4473 84.5034 86.4107C85.3984 86.374 86.268 86.0991 87.0242 85.6138L87.4604 81.0666C87.4604 81.0666 92.6953 78.4914 96.2139 76.8732C99.7325 75.255 100.157 70.7136 99.302 68.063Z" fill="#455A64"/>
<path opacity="0.1" d="M84.0795 145.267C83.1177 144.94 82.1093 144.776 81.0947 144.78C77.8918 144.78 75.2973 146.282 75.2973 148.132C75.2973 149.982 77.8918 151.49 81.0947 151.49C82.1099 151.495 83.1187 151.328 84.0795 150.997V145.267Z" fill="black"/>
<path opacity="0.1" d="M224.555 131.26C232.849 136.103 232.889 143.944 224.652 148.787C216.415 153.63 203.007 153.625 194.712 148.787C186.418 143.95 186.372 136.103 194.615 131.26C202.857 126.417 216.26 126.44 224.555 131.26Z" fill="black"/>
<path d="M235.11 76.4382L234.192 75.98C236.258 77.4996 239.811 85.6834 241.137 89.0126C241.154 89.0557 241.187 89.0903 241.229 89.1088C241.271 89.1272 241.319 89.1281 241.361 89.1112C241.404 89.0943 241.438 89.061 241.456 89.0185C241.475 88.9761 241.476 88.9281 241.459 88.885C241.017 87.7714 237.67 79.3962 235.11 76.4382Z" fill="#E0E0E0"/>
<path d="M220.829 134.096L221.65 132.675L220.583 131.991C220.395 131.898 220.185 131.858 219.977 131.876C219.769 131.895 219.569 131.97 219.4 132.095C218.922 132.406 218.525 132.828 218.241 133.325C217.956 133.822 217.793 134.381 217.764 134.954C217.741 135.164 217.776 135.375 217.867 135.565C217.957 135.755 218.099 135.915 218.275 136.027L219.32 136.7L220.186 135.204C220.459 134.872 220.676 134.498 220.829 134.096Z" fill="#37474F"/>
<path d="M220.468 132.774C221.369 132.246 222.109 132.669 222.109 133.725C222.08 134.298 221.916 134.856 221.632 135.353C221.347 135.85 220.95 136.272 220.473 136.584C219.572 137.112 218.832 136.689 218.832 135.639C218.861 135.065 219.025 134.506 219.309 134.008C219.594 133.51 219.991 133.087 220.468 132.774Z" fill="#455A64"/>
<path d="M202.915 133.69L202.094 132.269L203.162 131.585C203.349 131.491 203.559 131.452 203.767 131.47C203.976 131.489 204.175 131.564 204.344 131.689C204.821 132.001 205.218 132.423 205.502 132.92C205.787 133.417 205.95 133.975 205.98 134.548C206.003 134.758 205.968 134.969 205.877 135.159C205.787 135.349 205.646 135.509 205.469 135.621L204.424 136.3L203.558 134.804C203.285 134.47 203.068 134.094 202.915 133.69Z" fill="#37474F"/>
<path d="M203.282 132.373C202.375 131.846 201.635 132.263 201.635 133.319C201.664 133.892 201.828 134.45 202.112 134.947C202.397 135.444 202.794 135.866 203.271 136.178C204.172 136.706 204.912 136.283 204.912 135.233C204.883 134.66 204.721 134.102 204.437 133.605C204.154 133.108 203.758 132.686 203.282 132.373Z" fill="#455A64"/>
<path d="M208.793 130.169H211.835V135.465C211.823 135.601 211.775 135.731 211.696 135.843C211.618 135.954 211.511 136.042 211.387 136.097C211.054 136.269 210.685 136.358 210.311 136.358C209.937 136.358 209.568 136.269 209.235 136.097C209.112 136.041 209.006 135.953 208.928 135.842C208.85 135.731 208.803 135.601 208.793 135.465V130.169Z" fill="#EBEBEB"/>
<path d="M219.808 131.654V132.913L211.835 134.949V132.275L219.808 131.654Z" fill="#E0E0E0"/>
<path d="M219.808 131.654L219.251 131.463L211.835 131.857V132.275L219.808 131.654Z" fill="#F5F5F5"/>
<path d="M220.611 143.103L219.785 141.682L220.852 140.998C221.04 140.903 221.251 140.862 221.46 140.879C221.67 140.897 221.87 140.972 222.04 141.097C222.517 141.411 222.913 141.834 223.198 142.331C223.482 142.829 223.646 143.388 223.676 143.962C223.695 144.171 223.658 144.381 223.568 144.57C223.478 144.759 223.339 144.919 223.166 145.035L222.138 145.713L221.271 144.217C220.992 143.885 220.769 143.509 220.611 143.103Z" fill="#37474F"/>
<path d="M220.99 141.781C220.083 141.253 219.348 141.677 219.343 142.726C219.376 143.299 219.542 143.857 219.828 144.352C220.115 144.848 220.513 145.269 220.99 145.58C221.897 146.108 222.632 145.684 222.637 144.629C222.603 144.057 222.437 143.501 222.15 143.006C221.864 142.511 221.467 142.092 220.99 141.781Z" fill="#455A64"/>
<path d="M209.992 146.74L210.813 145.319L209.745 144.635C209.557 144.54 209.347 144.498 209.138 144.516C208.928 144.533 208.727 144.608 208.557 144.733C208.082 145.047 207.686 145.469 207.402 145.966C207.118 146.463 206.953 147.02 206.921 147.593C206.902 147.802 206.939 148.014 207.029 148.204C207.119 148.394 207.258 148.555 207.432 148.671L208.483 149.344L209.349 147.848C209.62 147.515 209.837 147.141 209.992 146.74Z" fill="#37474F"/>
<path d="M209.625 145.394C210.532 144.867 211.267 145.29 211.272 146.34C211.241 146.913 211.077 147.47 210.793 147.967C210.509 148.464 210.112 148.886 209.636 149.199C208.729 149.727 207.995 149.304 207.989 148.254C208.02 147.681 208.184 147.123 208.468 146.626C208.753 146.13 209.149 145.707 209.625 145.394Z" fill="#455A64"/>
<path d="M198.478 141.131L199.299 139.71L198.231 139.026C198.044 138.932 197.835 138.892 197.626 138.909C197.418 138.926 197.218 139.001 197.049 139.125C196.572 139.437 196.175 139.858 195.89 140.355C195.606 140.853 195.442 141.411 195.413 141.984C195.393 142.194 195.43 142.405 195.52 142.595C195.61 142.785 195.749 142.947 195.924 143.063L196.968 143.736L197.835 142.239C198.107 141.908 198.324 141.533 198.478 141.131Z" fill="#37474F"/>
<path d="M198.116 139.815C199.017 139.287 199.758 139.71 199.758 140.76C199.728 141.333 199.565 141.89 199.282 142.387C198.998 142.884 198.603 143.306 198.128 143.62C197.221 144.147 196.48 143.724 196.48 142.674C196.51 142.101 196.673 141.543 196.958 141.046C197.242 140.549 197.639 140.127 198.116 139.815Z" fill="#455A64"/>
<path d="M221.725 140.024V142.071L211.048 136.242V133.417L221.725 140.024Z" fill="#E0E0E0"/>
<path d="M222.345 139.676L211.663 133.261L211.048 133.417L221.725 140.024L222.345 139.676Z" fill="#F5F5F5"/>
<path d="M222.345 141.717L221.725 142.071V140.024L222.345 139.676V141.717Z" fill="#F0F0F0"/>
<path d="M210.331 133.417L209.028 143.846V145.713L210.331 136.358V133.417Z" fill="#E0E0E0"/>
<path d="M209.028 143.852H208.276V145.713H209.028V143.852Z" fill="#F0F0F0"/>
<path d="M208.276 143.846L209.458 133.417H210.331L209.028 143.846H208.276Z" fill="#F5F5F5"/>
<path d="M197.691 138.069V140.024L208.793 135.465V133.069L197.691 138.069Z" fill="#E0E0E0"/>
<path d="M197.261 139.734L197.691 140.024V138.069L197.261 137.785V139.734Z" fill="#F0F0F0"/>
<path d="M199.012 137.472L197.691 138.069L197.261 137.785L208.793 132.536V133.069L199.012 137.472Z" fill="#F5F5F5"/>
<path d="M203.173 130.587V131.869L206.41 133.62L208.793 132.536V132.008L203.173 130.587Z" fill="#E0E0E0"/>
<path d="M203.173 130.587L203.431 130.483L208.793 131.654V132.008L203.173 130.587Z" fill="#F5F5F5"/>
<path d="M207.823 120.721H212.805V129.421C212.781 129.643 212.7 129.854 212.57 130.034C212.44 130.214 212.266 130.357 212.064 130.448C211.519 130.728 210.917 130.874 210.305 130.874C209.694 130.874 209.091 130.728 208.546 130.448C208.346 130.356 208.173 130.211 208.046 130.03C207.919 129.849 207.842 129.637 207.823 129.415V120.721Z" fill="#E0E0E0"/>
<path d="M239.932 81.5306C239.628 81.5365 239.325 81.4894 239.037 81.3914L238.692 81.287L238.962 80.2836L238.285 79.46C237.786 79.2938 237.273 79.1735 236.752 79.1004C235.174 78.8858 233.423 79.2512 232.344 80.4402C231.265 81.6292 231.064 83.2706 231.018 84.8366C230.938 87.5278 231.265 90.2074 231.425 92.8986C231.677 95.5879 231.471 98.3009 230.817 100.92C230.065 103.501 228.521 105.937 226.168 107.236C225.239 107.731 224.249 108.095 223.223 108.321L215.084 101.825L203.862 98.2578L189.162 105.879C188.779 106.107 188.454 106.423 188.215 106.801C187.067 108.541 187.268 111.685 189.288 112.851L209.579 123.737C210.25 124.097 210.997 124.289 211.757 124.298C212.517 124.306 213.268 124.129 213.947 123.784L228.159 116.51C229.059 116.049 229.853 115.403 230.489 114.613C231.126 113.822 231.592 112.906 231.856 111.923L239.995 81.5422L239.932 81.5306Z" fill="#37474F"/>
<path d="M189.162 105.862L203.862 98.2404L215.084 101.807L223.223 108.303C222.591 108.46 221.949 108.588 221.317 108.715C219.632 108.962 218.004 109.508 216.507 110.328C215.061 111.227 213.895 112.764 213.884 114.48L214.4 118.54L213.947 118.767C213.269 119.115 212.518 119.293 211.758 119.286C210.998 119.279 210.25 119.087 209.579 118.726L189.288 107.839C188.855 107.584 188.488 107.231 188.215 106.807C188.451 106.42 188.776 106.096 189.162 105.862Z" fill="#455A64"/>
<path opacity="0.1" d="M189.162 105.862L203.862 98.2404L215.084 101.807L223.223 108.303C222.591 108.46 221.949 108.588 221.317 108.715C219.632 108.962 218.004 109.508 216.507 110.328C215.061 111.227 213.895 112.764 213.884 114.48L214.4 118.54L213.947 118.767C213.269 119.115 212.518 119.293 211.758 119.286C210.998 119.279 210.25 119.087 209.579 118.726L189.288 107.839C188.855 107.584 188.488 107.231 188.215 106.807C188.451 106.42 188.776 106.096 189.162 105.862Z" fill="black"/>
<path d="M191.297 93.119C191.297 93.119 203.098 96.599 206.221 93.5308C210.107 89.6796 208.477 79.9704 208.018 76.1714C207.558 72.3724 208.018 69.7392 209.057 68.6314C210.095 67.5236 211.605 65.8822 216.519 67.9296C211.576 70.499 213.075 83.6534 214.619 88.5602C210.744 92.5854 208.879 97.904 208.815 100.804C208.815 100.804 198.73 103.292 193.467 106.21L191.297 93.119Z" fill="#455A64"/>
<path opacity="0.1" d="M191.297 93.119C191.297 93.119 203.098 96.599 206.221 93.5308C210.107 89.6796 208.477 79.9704 208.018 76.1714C207.558 72.3724 208.018 69.7392 209.057 68.6314C210.095 67.5236 211.605 65.8822 216.519 67.9296C211.576 70.499 212.225 83.6534 213.786 88.5602C209.912 92.5854 208.89 97.904 208.815 100.804C208.815 100.804 198.73 103.292 193.467 106.21L191.297 93.119Z" fill="white"/>
<path d="M193.438 106.21L191.021 104.893C191.021 98.1882 190.046 98.8494 188.215 96.193C186.384 93.5366 189.19 91.93 191.297 93.0958C193.404 94.2616 194.265 97.8054 193.438 106.21Z" fill="#455A64"/>
<path opacity="0.2" d="M193.438 106.21L191.021 104.893C191.021 98.1882 190.046 98.8494 188.215 96.193C186.384 93.5366 189.19 91.93 191.297 93.0958C193.404 94.2616 194.265 97.8054 193.438 106.21Z" fill="white"/>
<path d="M216.49 67.9296C216.49 67.9296 229.692 73.7296 236.144 76.9312L235.673 79.3034L214.59 69.629C215.088 68.9243 215.737 68.3432 216.49 67.9296Z" fill="#455A64"/>
<path opacity="0.1" d="M216.49 67.9296C216.49 67.9296 229.692 73.7296 236.144 76.9312L235.673 79.3034L214.59 69.629C215.088 68.9243 215.737 68.3432 216.49 67.9296Z" fill="white"/>
<path d="M212.472 87.6322C211.135 83.4388 211.41 73.9268 214.59 69.6522L235.673 79.3266L230.857 103.727L223.223 108.327L208.787 100.804C208.861 97.904 208.597 91.64 212.472 87.6322Z" fill="#455A64"/>
<path d="M225.519 92.5216C225.163 92.3128 224.87 92.481 224.87 92.8986C224.882 93.1242 224.946 93.3438 225.058 93.5395C225.169 93.7351 225.326 93.9011 225.513 94.0238C225.869 94.2326 226.162 94.0702 226.162 93.6526C226.151 93.426 226.088 93.2052 225.976 93.0086C225.864 92.8119 225.707 92.6449 225.519 92.5216Z" fill="#455A64"/>
<path d="M222.259 90.5844C221.897 90.3756 221.61 90.5438 221.604 90.9614C221.618 91.1872 221.683 91.4066 221.796 91.6021C221.909 91.7975 222.065 91.9635 222.253 92.0866C222.609 92.2954 222.901 92.133 222.901 91.7154C222.89 91.4891 222.825 91.2689 222.714 91.0724C222.602 90.8759 222.446 90.7087 222.259 90.5844Z" fill="#455A64"/>
<path d="M218.992 88.6472C218.637 88.4384 218.344 88.6066 218.344 89.0242C218.356 89.2496 218.421 89.4689 218.532 89.6643C218.644 89.8598 218.8 90.026 218.987 90.1494C219.348 90.3582 219.635 90.1958 219.641 89.7782C219.628 89.5515 219.563 89.3311 219.45 89.1347C219.337 88.9382 219.181 88.7713 218.992 88.6472Z" fill="#455A64"/>
<path d="M215.732 86.71C215.371 86.5012 215.084 86.6694 215.084 87.087C215.095 87.3126 215.159 87.5322 215.271 87.7278C215.383 87.9235 215.539 88.0895 215.726 88.2122C216.082 88.421 216.375 88.2586 216.375 87.841C216.363 87.6148 216.299 87.3945 216.187 87.198C216.076 87.0015 215.92 86.8344 215.732 86.71Z" fill="#455A64"/>
<g opacity="0.2">
<path opacity="0.2" d="M225.519 92.5216C225.163 92.3128 224.87 92.481 224.87 92.8986C224.882 93.1242 224.946 93.3438 225.058 93.5395C225.169 93.7351 225.326 93.9011 225.513 94.0238C225.869 94.2326 226.162 94.0702 226.162 93.6526C226.151 93.426 226.088 93.2052 225.976 93.0086C225.864 92.8119 225.707 92.6449 225.519 92.5216Z" fill="white"/>
<path opacity="0.2" d="M222.259 90.5844C221.897 90.3756 221.61 90.5438 221.604 90.9614C221.618 91.1872 221.683 91.4066 221.796 91.6021C221.909 91.7975 222.065 91.9635 222.253 92.0866C222.609 92.2954 222.901 92.133 222.901 91.7154C222.89 91.4891 222.825 91.2689 222.714 91.0724C222.602 90.8759 222.446 90.7087 222.259 90.5844Z" fill="white"/>
<path opacity="0.2" d="M218.993 88.6472C218.637 88.4384 218.344 88.6066 218.344 89.0242C218.356 89.2496 218.421 89.4689 218.533 89.6643C218.644 89.8598 218.8 90.026 218.987 90.1494C219.348 90.3582 219.635 90.1958 219.641 89.7782C219.628 89.5515 219.563 89.3311 219.45 89.1347C219.338 88.9382 219.181 88.7713 218.993 88.6472Z" fill="white"/>
<path opacity="0.2" d="M215.732 86.71C215.371 86.5012 215.084 86.6694 215.084 87.087C215.095 87.3126 215.159 87.5322 215.271 87.7278C215.383 87.9235 215.539 88.0895 215.726 88.2122C216.082 88.421 216.375 88.2586 216.375 87.841C216.363 87.6148 216.299 87.3945 216.187 87.198C216.076 87.0015 215.92 86.8344 215.732 86.71Z" fill="white"/>
</g>
<path d="M216.507 110.328C218.004 109.508 219.632 108.962 221.317 108.715C221.949 108.588 222.592 108.46 223.223 108.303C224.248 108.078 225.239 107.713 226.168 107.219C228.498 105.92 230.065 103.484 230.817 100.903C231.47 98.2873 231.676 95.5783 231.425 92.8928C231.265 90.2016 230.937 87.522 231.018 84.8308C231.064 83.2648 231.299 81.5886 232.344 80.4344C233.388 79.2802 235.174 78.88 236.752 79.0946C237.273 79.1677 237.786 79.288 238.285 79.4542L238.985 80.2836L238.715 81.287L231.856 106.882C231.381 108.66 230.254 110.188 228.705 111.157C228.527 111.267 228.349 111.377 228.159 111.47L214.383 118.517L213.867 114.457C213.895 112.764 215.061 111.227 216.507 110.328Z" fill="#37474F"/>
<path d="M216.49 107.573C221.524 106.123 226.466 105.937 228.291 102.283C230.117 98.629 230.243 93.583 229.33 84.8192C229.217 83.6892 229.244 82.5494 229.411 81.4262C229.95 78.1492 231.902 76.7456 234.146 76.7108C236.368 76.6717 238.521 77.4888 240.167 78.996C240.487 79.2656 240.742 79.6046 240.914 79.9878C240.993 80.1767 241.022 80.3836 240.997 80.5874C240.972 80.7912 240.893 80.9846 240.77 81.1478C240.566 81.3616 240.289 81.4883 239.995 81.5016H239.932C239.628 81.5075 239.325 81.4604 239.037 81.3624L238.692 81.258C238.078 81.0608 237.47 80.8288 236.844 80.678C236.095 80.4547 235.297 80.4547 234.548 80.678C234.196 80.818 233.881 81.0394 233.629 81.3244C233.377 81.6094 233.194 81.9502 233.096 82.3194C230.972 89.3258 233.67 96.8542 231.276 102.619C229.325 107.88 222.574 110.067 217.816 111.627C218.279 111.442 218.688 111.141 219.004 110.751C219.241 110.38 219.351 109.941 219.317 109.501C219.283 109.06 219.106 108.644 218.815 108.315C218.516 108.01 218.148 107.783 217.743 107.654C217.338 107.524 216.908 107.496 216.49 107.573Z" fill="#455A64"/>
<path opacity="0.1" d="M216.49 107.573C221.524 106.123 226.466 105.937 228.291 102.283C230.117 98.629 230.243 93.583 229.33 84.8192C229.217 83.6892 229.244 82.5494 229.411 81.4262C229.95 78.1492 231.902 76.7456 234.146 76.7108C236.368 76.6717 238.521 77.4888 240.167 78.996C240.487 79.2656 240.742 79.6046 240.914 79.9878C240.993 80.1767 241.022 80.3836 240.997 80.5874C240.972 80.7912 240.893 80.9846 240.77 81.1478C240.566 81.3616 240.289 81.4883 239.995 81.5016H239.932C239.628 81.5075 239.325 81.4604 239.037 81.3624L238.692 81.258C238.078 81.0608 237.47 80.8288 236.844 80.678C236.095 80.4547 235.297 80.4547 234.548 80.678C234.196 80.818 233.881 81.0394 233.629 81.3244C233.377 81.6094 233.194 81.9502 233.096 82.3194C230.972 89.3258 233.67 96.8542 231.276 102.619C229.325 107.88 222.574 110.067 217.816 111.627C218.279 111.442 218.688 111.141 219.004 110.751C219.241 110.38 219.351 109.941 219.317 109.501C219.283 109.06 219.106 108.644 218.815 108.315C218.516 108.01 218.148 107.783 217.743 107.654C217.338 107.524 216.908 107.496 216.49 107.573Z" fill="white"/>
<path d="M213 111.174C213.295 110.345 213.73 109.574 214.286 108.895C214.85 108.213 215.627 107.746 216.49 107.573C216.919 107.493 217.362 107.522 217.777 107.659C218.192 107.796 218.566 108.035 218.866 108.356C219.158 108.684 219.335 109.101 219.369 109.541C219.403 109.981 219.293 110.421 219.056 110.792C218.74 111.181 218.331 111.483 217.868 111.667C217.488 111.829 217.118 112.013 216.76 112.218C215.82 112.859 215.144 113.824 214.86 114.933C214.577 116.032 214.429 117.161 214.418 118.297V118.517L212.059 117.195C211.95 115.143 212.271 113.092 213 111.174Z" fill="#455A64"/>
<path opacity="0.2" d="M213 111.174C213.295 110.345 213.73 109.574 214.286 108.895C214.85 108.213 215.627 107.746 216.49 107.573C216.919 107.493 217.362 107.522 217.777 107.659C218.192 107.796 218.566 108.035 218.866 108.356C219.158 108.684 219.335 109.101 219.369 109.541C219.403 109.981 219.293 110.421 219.056 110.792C218.74 111.181 218.331 111.483 217.868 111.667C217.488 111.829 217.118 112.013 216.76 112.218C215.82 112.859 215.144 113.824 214.86 114.933C214.577 116.032 214.429 117.161 214.418 118.297V118.517L212.059 117.195C211.95 115.143 212.271 113.092 213 111.174Z" fill="white"/>
<path d="M244.897 87.8352L244.518 87.4176L221.954 96.628L224.055 104.313L224.434 104.725L246.992 95.5202L244.897 87.8352Z" fill="#2C557D"/>
<path opacity="0.2" d="M221.954 96.628L224.055 104.313L224.434 104.725L222.333 97.0456L221.954 96.628Z" fill="black"/>
<path opacity="0.2" d="M244.897 87.8352L244.518 87.4176L221.954 96.628L222.333 97.0456L244.897 87.8352Z" fill="white"/>
<path d="M234.095 98.3274L233.205 95.062C233.193 95.0179 233.171 94.9772 233.142 94.943C233.112 94.9088 233.074 94.882 233.033 94.8648H232.975H232.912C232.87 94.8594 232.828 94.8594 232.786 94.8648C232.736 94.8812 232.691 94.909 232.654 94.946C232.616 94.978 232.584 95.0175 232.562 95.062C232.548 95.0919 232.536 95.1229 232.527 95.1548C232.526 95.1702 232.526 95.1858 232.527 95.2012C232.516 95.2488 232.516 95.2986 232.527 95.3462L232.883 96.6512L230.874 97.44L230.518 96.135C230.504 96.0798 230.475 96.03 230.433 95.9919C230.391 95.9537 230.339 95.9289 230.283 95.9204H230.174C230.132 95.9121 230.09 95.9121 230.048 95.9204C229.998 95.9427 229.952 95.9719 229.91 96.0074C229.873 96.0404 229.842 96.0796 229.818 96.1234C229.804 96.1533 229.793 96.1843 229.784 96.2162C229.784 96.2162 229.784 96.251 229.784 96.2626C229.775 96.3105 229.775 96.3597 229.784 96.4076L230.679 99.673C230.691 99.7179 230.712 99.7595 230.742 99.7948C230.761 99.8116 230.782 99.8254 230.805 99.8354C230.817 99.8381 230.829 99.8381 230.84 99.8354C230.868 99.841 230.898 99.841 230.926 99.8354H230.978C231.029 99.8344 231.08 99.8225 231.127 99.8006C231.222 99.7664 231.301 99.6989 231.35 99.6106C231.4 99.5222 231.416 99.4188 231.397 99.3192L231.035 97.991L232.992 97.1906L233.354 98.5188C233.378 98.5945 233.43 98.6585 233.498 98.6986C233.498 98.6986 233.498 98.6986 233.526 98.6986C233.555 98.7047 233.584 98.7047 233.612 98.6986H233.658C233.685 98.7019 233.712 98.7019 233.739 98.6986H233.808C233.886 98.6717 233.955 98.6223 234.006 98.5563C234.057 98.4904 234.088 98.4108 234.095 98.3274Z" fill="white"/>
<path d="M229.767 99.6614C229.754 99.6217 229.733 99.5851 229.705 99.5541C229.677 99.5231 229.644 99.4984 229.606 99.4816H229.491C229.457 99.4762 229.422 99.4762 229.388 99.4816C229.346 99.4992 229.308 99.5226 229.273 99.5512C229.243 99.5792 229.216 99.6103 229.193 99.644L229.129 99.731C229.1 99.7778 229.067 99.8224 229.032 99.8644L229.003 99.905L228.888 100.021C228.868 100.049 228.845 100.074 228.819 100.096C228.791 100.125 228.751 100.149 228.716 100.178L228.607 100.259L228.481 100.323L228.32 100.404L228.136 100.462H228.09H228.039C227.729 100.531 227.405 100.475 227.136 100.304C226.868 100.134 226.676 99.8633 226.604 99.5512C226.555 99.3621 226.541 99.1654 226.564 98.9712C226.574 98.8768 226.593 98.7836 226.621 98.6928C226.619 98.6697 226.619 98.6464 226.621 98.6232C226.644 98.5531 226.673 98.4852 226.707 98.4202C226.744 98.3455 226.786 98.2737 226.833 98.2056L226.862 98.1708C226.913 98.1016 226.971 98.0376 227.034 97.9794L227.097 97.933C227.232 97.8149 227.385 97.7208 227.551 97.6546C227.891 97.5084 228.272 97.4899 228.624 97.6024C228.701 97.6265 228.783 97.6265 228.86 97.6024C228.955 97.5693 229.035 97.502 229.085 97.4133C229.134 97.3247 229.15 97.2207 229.129 97.121C229.112 97.0682 229.083 97.0203 229.043 96.9818C229.01 96.9528 228.971 96.9311 228.928 96.918C228.876 96.9037 228.822 96.892 228.768 96.8832H228.653H228.567C228.46 96.8715 228.352 96.8715 228.245 96.8832C228.1 96.8907 227.956 96.914 227.815 96.9528C227.674 96.9878 227.535 97.0344 227.402 97.092C227.249 97.1502 227.103 97.2241 226.965 97.3124C226.841 97.3934 226.722 97.4825 226.61 97.5792C226.612 97.5888 226.612 97.5987 226.61 97.6082C226.512 97.7011 226.42 97.7999 226.334 97.904L226.294 97.9562C226.213 98.0625 226.14 98.1749 226.076 98.2926C226.035 98.3622 226.013 98.4434 225.978 98.513C225.944 98.5826 225.926 98.6348 225.903 98.6928C225.883 98.7631 225.867 98.8348 225.858 98.9074C225.837 98.9737 225.821 99.0416 225.812 99.1104C225.806 99.2051 225.806 99.3 225.812 99.3946C225.809 99.441 225.809 99.4875 225.812 99.5338C225.818 99.6753 225.841 99.8156 225.881 99.9514C225.921 100.092 225.975 100.228 226.041 100.357C226.065 100.396 226.092 100.433 226.122 100.468C226.167 100.547 226.218 100.623 226.277 100.694C226.324 100.743 226.373 100.79 226.426 100.833L226.518 100.92L226.581 100.966H226.627C226.689 101.009 226.754 101.046 226.822 101.077L226.868 101.106C227.131 101.213 227.413 101.265 227.697 101.26C227.981 101.255 228.261 101.193 228.521 101.077C229.089 100.858 229.565 100.448 229.87 99.9166C229.87 99.8693 229.861 99.8224 229.843 99.7786C229.826 99.7348 229.799 99.695 229.767 99.6614Z" fill="white"/>
<path d="M235.914 97.585L235.024 94.3196C235.01 94.2692 234.983 94.2233 234.946 94.1867C234.908 94.1501 234.862 94.1239 234.812 94.1108C234.785 94.1081 234.758 94.1081 234.732 94.1108H234.697C234.657 94.1025 234.616 94.1025 234.577 94.1108C234.527 94.1331 234.48 94.1624 234.439 94.1978C234.403 94.2324 234.373 94.2713 234.347 94.3138C234.332 94.3434 234.321 94.3745 234.313 94.4066C234.31 94.422 234.31 94.4377 234.313 94.453C234.301 94.5007 234.301 94.5504 234.313 94.598L235.202 97.8576C235.219 97.92 235.256 97.9751 235.307 98.0148C235.357 98.0545 235.419 98.0767 235.484 98.078H235.512C235.563 98.0742 235.614 98.0624 235.661 98.0432C235.749 98.0075 235.822 97.9426 235.868 97.8592C235.914 97.7758 235.93 97.6791 235.914 97.585Z" fill="white"/>
<path d="M237.464 97.3008L238.244 96.9876L239.886 96.3148C239.97 96.2812 240.04 96.2185 240.083 96.1379C240.127 96.0572 240.14 95.9637 240.121 95.874C240.104 95.8149 240.067 95.7635 240.017 95.7278C239.967 95.6921 239.907 95.6742 239.846 95.6768C239.806 95.6685 239.765 95.6685 239.725 95.6768L237.659 96.5236L237.378 95.4796L239.146 94.7604C239.229 94.7271 239.299 94.6656 239.343 94.5863C239.387 94.507 239.402 94.4149 239.387 94.3254C239.376 94.2847 239.357 94.2468 239.33 94.2147C239.303 94.1825 239.27 94.1569 239.232 94.1398H239.174H239.111C239.071 94.1345 239.031 94.1345 238.991 94.1398L237.223 94.859L236.947 93.8498L238.979 93.0204C239.023 93.0023 239.064 92.9768 239.1 92.945C239.151 92.9019 239.189 92.8458 239.211 92.7826C239.233 92.7194 239.239 92.6513 239.226 92.5854C239.215 92.5579 239.199 92.5324 239.18 92.51C239.155 92.4806 239.123 92.4569 239.088 92.4404H238.979C238.936 92.4423 238.893 92.4522 238.853 92.4694L236.465 93.4438C236.415 93.4661 236.369 93.4954 236.327 93.5308C236.29 93.5638 236.259 93.6031 236.235 93.6468C236.22 93.6756 236.21 93.7071 236.207 93.7396V93.786C236.196 93.8337 236.196 93.8834 236.207 93.931L237.079 97.1326C237.093 97.1797 237.116 97.2232 237.148 97.2602H237.177L237.234 97.3008H237.274H237.355H237.435H237.464Z" fill="white"/>
<path d="M243.072 92.5854C243.031 92.5896 242.99 92.5993 242.951 92.6144L241.178 93.3394L240.885 92.2722L242.923 91.4428C243.009 91.4113 243.082 91.3495 243.127 91.2686C243.172 91.1878 243.187 91.0932 243.169 91.002C243.159 90.9613 243.14 90.9234 243.113 90.8913C243.086 90.8591 243.052 90.8335 243.014 90.8164C242.978 90.8104 242.941 90.8104 242.905 90.8164C242.864 90.8206 242.824 90.8303 242.785 90.8454L240.386 91.8256C240.336 91.8421 240.291 91.8698 240.253 91.9068C240.217 91.9381 240.186 91.9753 240.162 92.017C240.147 92.044 240.137 92.0735 240.133 92.104C240.131 92.1213 240.131 92.1389 240.133 92.1562C240.127 92.1966 240.127 92.2376 240.133 92.278L241.017 95.5144C241.028 95.5606 241.052 95.6027 241.086 95.6362H241.12C241.136 95.6511 241.154 95.6647 241.172 95.6768C241.206 95.6834 241.241 95.6834 241.275 95.6768H241.344H241.396H241.447L241.499 95.642H241.534H241.562C241.619 95.5944 241.661 95.5316 241.685 95.4609C241.708 95.3902 241.711 95.3143 241.694 95.2418L241.35 93.9716L243.118 93.2466C243.207 93.2161 243.282 93.1541 243.329 93.0721C243.377 92.99 243.393 92.8934 243.376 92.8C243.36 92.733 243.32 92.6743 243.264 92.6349C243.208 92.5954 243.14 92.5778 243.072 92.5854Z" fill="white"/>
<path d="M233.618 75.4H233.584C233.431 75.4094 233.279 75.4327 233.13 75.4696C230.151 76.2352 227.327 83.1952 224.974 95.555C224.969 95.5775 224.97 95.6006 224.974 95.6229C224.979 95.6453 224.988 95.6665 225.001 95.6854C225.014 95.7042 225.03 95.7203 225.049 95.7328C225.068 95.7453 225.089 95.7538 225.111 95.758H225.146C225.187 95.7575 225.226 95.7428 225.257 95.7164C225.289 95.69 225.31 95.6535 225.318 95.613C226.707 88.305 229.652 75.9278 233.601 75.7422H233.721C233.897 75.7827 234.062 75.8619 234.204 75.9742L235.116 76.415C234.554 75.7886 234.037 75.4 233.618 75.4Z" fill="#E6E6E6"/>
<g style="mix-blend-mode:saturation">
<rect x="3" y="13" width="289" height="264" fill="#2B80D3"/>
</g>
</g>
</g>
<defs>
<filter id="filter0_d_68_179" x="-94" y="-187" width="475" height="912" filterUnits="userSpaceOnUse" color-interpolation-filters="sRGB">
<feFlood flood-opacity="0" result="BackgroundImageFix"/>
<feColorMatrix in="SourceAlpha" type="matrix" values="0 0 0 0 0 0 0 0 0 0 0 0 0 0 0 0 0 0 127 0" result="hardAlpha"/>
<feOffset dy="4"/>
<feGaussianBlur stdDeviation="25"/>
<feColorMatrix type="matrix" values="0 0 0 0 0 0 0 0 0 0 0 0 0 0 0 0 0 0 0.25 0"/>
<feBlend mode="normal" in2="BackgroundImageFix" result="effect1_dropShadow_68_179"/>
<feBlend mode="normal" in="SourceGraphic" in2="effect1_dropShadow_68_179" result="shape"/>
</filter>
<clipPath id="clip0_68_179">
<rect x="-44" y="-141" width="375" height="812" rx="20" fill="white"/>
</clipPath>
</defs>
</svg>
