<svg width="289" height="265" viewBox="0 0 289 265" fill="none" xmlns="http://www.w3.org/2000/svg">
<rect width="289" height="265" fill="#1F1F1F"/>
<g filter="url(#filter0_d_68_179)">
<g clip-path="url(#clip0_68_179)">
<rect x="-47" y="-154" width="375" height="812" rx="20" fill="white"/>
<path d="M41.1963 243.835C96.128 270.788 185.184 270.794 240.116 243.835C295.048 216.877 295.041 173.173 240.116 146.214C185.191 119.255 96.128 119.255 41.1963 146.214C-13.7355 173.173 -13.7287 216.877 41.1963 243.835Z" fill="#F5F5F5"/>
<path d="M235.58 228.348C247.904 228.348 257.895 223.587 257.895 217.715C257.895 211.842 247.904 207.081 235.58 207.081C223.256 207.081 213.265 211.842 213.265 217.715C213.265 223.587 223.256 228.348 235.58 228.348Z" fill="#E6E6E6"/>
<path d="M139.831 122.642L114.488 137.278C113.458 137.95 112.731 138.998 112.46 140.198L106.16 176.573C106.087 177.138 106.176 177.712 106.415 178.229C106.654 178.745 107.034 179.184 107.512 179.494L123.858 188.958C124.382 189.22 124.961 189.357 125.548 189.357C126.134 189.357 126.713 189.22 127.238 188.958L162.173 168.786C162.687 168.513 163.116 168.105 163.415 167.607C163.715 167.109 163.873 166.538 163.873 165.957C163.873 165.375 163.715 164.805 163.415 164.307C163.116 163.808 162.687 163.401 162.173 163.128L149.64 155.847C149.136 155.516 148.706 155.083 148.378 154.577C148.05 154.071 147.831 153.502 147.734 152.907L144.908 125.454C144.824 124.877 144.62 124.324 144.311 123.829C144.001 123.334 143.592 122.91 143.11 122.581C142.597 122.333 142.033 122.209 141.463 122.22C140.894 122.23 140.335 122.375 139.831 122.642V122.642Z" fill="#263238"/>
<path d="M125.554 182.536V189.336C126.147 189.348 126.734 189.209 127.258 188.931L162.194 168.759C162.68 168.456 163.088 168.041 163.384 167.55C163.68 167.059 163.856 166.505 163.897 165.933C163.859 165.265 163.624 164.622 163.221 164.088H157.502L125.554 182.536Z" fill="#455A64"/>
<path d="M143.022 124.481L117.672 139.123C116.642 139.796 115.915 140.843 115.644 142.043L109.918 175.059C109.847 175.625 109.936 176.199 110.175 176.717C110.414 177.234 110.793 177.674 111.27 177.986L123.837 185.24C124.362 185.502 124.941 185.639 125.527 185.639C126.114 185.639 126.693 185.502 127.217 185.24L162.194 165.041C163.14 164.5 163.14 163.621 162.194 163.074L149.64 155.847C149.136 155.516 148.706 155.083 148.378 154.577C148.05 154.071 147.831 153.502 147.734 152.907L144.908 125.454C144.912 125.233 144.855 125.016 144.741 124.826C144.628 124.636 144.464 124.482 144.268 124.381C144.072 124.28 143.851 124.235 143.631 124.253C143.411 124.271 143.2 124.35 143.022 124.481V124.481Z" fill="#263238"/>
<path d="M162.194 163.101L149.64 155.847C149.134 155.531 148.706 155.103 148.39 154.597L110.155 176.668C110.387 177.213 110.781 177.673 111.284 177.986L123.851 185.24C124.376 185.502 124.954 185.639 125.541 185.639C126.127 185.639 126.706 185.502 127.231 185.24L162.194 165.041C163.16 164.527 163.16 163.648 162.194 163.101Z" fill="#37474F"/>
<path d="M59.2658 194.988L57.6434 194.048C56.9486 193.596 56.3704 192.986 55.9557 192.269C55.5411 191.551 55.3017 190.745 55.2571 189.918V81.0817C55.3017 80.2549 55.5411 79.4504 55.9558 78.7337C56.3705 78.0171 56.9488 77.4087 57.6434 76.9581L190.653 0.570055C191.393 0.19529 192.21 0 193.039 0C193.869 0 194.686 0.19529 195.426 0.570055L196.663 1.24606C197.357 1.69853 197.935 2.30833 198.35 3.02596C198.764 3.74359 199.004 4.54885 199.049 5.37642V114.28C199.004 115.108 198.765 115.913 198.35 116.631C197.936 117.349 197.358 117.958 196.663 118.41L64.0383 194.988C63.2982 195.361 62.4809 195.555 61.652 195.555C60.8232 195.555 60.0059 195.361 59.2658 194.988V194.988Z" fill="#455A64"/>
<path d="M64.8428 83.8262L55.9601 78.6954C55.5384 79.4093 55.3057 80.219 55.2841 81.0479V189.918C55.3287 190.745 55.5681 191.551 55.9828 192.269C56.3974 192.986 56.9757 193.596 57.6704 194.048L59.2928 194.988C60.0329 195.361 60.8502 195.555 61.6791 195.555C62.508 195.555 63.3253 195.361 64.0654 194.988L64.8698 194.514L64.8428 83.8262Z" fill="#263238"/>
<path d="M61.652 193.609V84.7726C61.6967 83.9449 61.936 83.1395 62.3507 82.4218C62.7654 81.704 63.3436 81.0943 64.0383 80.6422L196.663 4.03117C197.981 3.27405 199.049 3.88921 199.049 5.38317V114.28C199.004 115.108 198.765 115.913 198.35 116.631C197.936 117.349 197.358 117.958 196.663 118.41L64.0383 194.988C62.7201 195.745 61.652 195.13 61.652 193.609Z" fill="#37474F"/>
<path d="M123.952 153.028L136.519 145.768C137.459 145.227 138.223 145.613 138.223 146.633C138.181 147.205 138.005 147.759 137.709 148.25C137.413 148.741 137.005 149.155 136.519 149.459L123.952 156.719C123.006 157.26 122.249 156.875 122.249 155.854C122.29 155.282 122.466 154.728 122.762 154.237C123.058 153.746 123.466 153.332 123.952 153.028V153.028Z" fill="#E0E0E0"/>
<path d="M67.7631 83.9209L192.668 11.5889C193.418 11.1562 194.02 11.5077 194.02 12.373V107.29C193.995 107.762 193.86 108.221 193.625 108.631C193.39 109.041 193.062 109.39 192.668 109.649L67.7631 181.765C67.006 182.198 66.4111 181.846 66.4111 180.974V86.3342C66.4275 85.8532 66.5588 85.3832 66.794 84.9633C67.0292 84.5435 67.3615 84.186 67.7631 83.9209V83.9209Z" fill="white"/>
<path d="M76.7674 86.3071L207.851 10.5951C209.933 9.39857 211.636 10.3788 211.636 12.7786V98.3264C211.602 98.9356 211.425 99.5281 211.119 100.056C210.814 100.585 210.389 101.034 209.879 101.368L76.0914 178.615C75.1247 179.176 74.3338 178.716 74.3338 177.601V90.5253C74.3813 89.6809 74.6263 88.8594 75.0489 88.1268C75.4716 87.3942 76.0602 86.7709 76.7674 86.3071V86.3071Z" fill="#E0E0E0"/>
<path d="M211.636 14.7728V12.7988C211.636 10.399 209.933 9.41884 207.851 10.6154L76.7674 86.3274C76.0602 86.7912 75.4716 87.4144 75.0489 88.147C74.6263 88.8796 74.3813 89.7012 74.3338 90.5456V94.0608L211.636 14.7728Z" fill="#2C557D"/>
<path d="M195.77 19.2749C195.392 19.5214 195.077 19.8537 194.852 20.2449C194.626 20.6361 194.496 21.0751 194.473 21.526C194.473 22.3575 195.054 22.6955 195.77 22.2831C196.15 22.036 196.466 21.7027 196.693 21.3103C196.92 20.918 197.051 20.4777 197.075 20.0253C197.075 19.1938 196.494 18.8558 195.77 19.2749Z" fill="white"/>
<path d="M200.942 16.3208C200.572 16.5676 200.263 16.8968 200.042 17.2827C199.82 17.6686 199.691 18.1006 199.664 18.5448C199.664 19.3763 200.246 19.7143 200.969 19.2952C201.348 19.0476 201.664 18.7142 201.891 18.322C202.117 17.9298 202.249 17.4897 202.274 17.0374C202.247 16.2059 201.692 15.8746 200.942 16.3208Z" fill="white"/>
<path d="M206.113 13.3058C205.734 13.5515 205.418 13.8836 205.191 14.2748C204.964 14.666 204.833 15.1054 204.809 15.5569C204.809 16.3884 205.39 16.7264 206.113 16.314C206.491 16.0657 206.806 15.732 207.031 15.3398C207.257 14.9476 207.387 14.5079 207.411 14.0562C207.411 13.2247 206.83 12.8867 206.113 13.3058Z" fill="white"/>
<path d="M203.355 29.8003C203.247 29.442 202.909 29.3271 202.51 29.5569L119.146 77.6949C118.882 77.8614 118.668 78.0946 118.524 78.3709L115.779 76.7823C115.923 76.506 116.138 76.2728 116.401 76.1063L199.766 27.9751C200.037 27.8352 200.339 27.7621 200.644 27.7621C200.95 27.7621 201.251 27.8352 201.523 27.9751L202.51 28.5429C202.728 28.6848 202.916 28.8693 203.061 29.0854C203.206 29.3015 203.306 29.5446 203.355 29.8003V29.8003Z" fill="#EBEBEB"/>
<path d="M203.389 30.0639V66.088C203.373 66.3929 203.285 66.6897 203.132 66.954C202.98 67.2184 202.766 67.4428 202.51 67.609L119.146 115.74L119.024 115.801C118.972 115.823 118.918 115.839 118.862 115.848C118.531 115.896 118.294 115.659 118.294 115.226V79.1888C118.305 78.8833 118.393 78.5856 118.551 78.3236C118.695 78.0473 118.91 77.814 119.173 77.6476L202.537 29.5096C202.936 29.2798 203.274 29.3947 203.382 29.753C203.386 29.7753 203.386 29.7982 203.382 29.8206C203.395 29.9011 203.397 29.9828 203.389 30.0639V30.0639Z" fill="#FAFAFA"/>
<path d="M118.835 115.855C118.566 115.937 118.283 115.963 118.003 115.929C117.787 115.911 117.578 115.846 117.388 115.74L116.401 115.172C116.146 115.005 115.934 114.78 115.781 114.516C115.629 114.252 115.54 113.956 115.522 113.651V77.6273C115.532 77.3215 115.62 77.0234 115.779 76.762L118.524 78.3506C118.366 78.6126 118.278 78.9104 118.267 79.2159V115.233C118.267 115.693 118.504 115.902 118.835 115.855Z" fill="#E0E0E0"/>
<path d="M153.933 102.727C153.825 102.369 153.48 102.254 153.088 102.484L119.146 122.088C118.876 122.252 118.654 122.486 118.504 122.764L115.766 121.162C115.915 120.885 116.134 120.652 116.401 120.486L150.336 100.882C150.608 100.742 150.91 100.669 151.215 100.669C151.521 100.669 151.822 100.742 152.094 100.882L153.088 101.45C153.306 101.596 153.494 101.784 153.639 102.003C153.784 102.223 153.884 102.469 153.933 102.727Z" fill="#EBEBEB"/>
<path d="M153.967 102.991V129.504C153.95 129.807 153.862 130.103 153.711 130.367C153.559 130.631 153.348 130.856 153.095 131.025L121.018 149.54L119.153 150.622L119.017 150.689C118.598 150.838 118.294 150.602 118.294 150.108V123.602C118.303 123.312 118.384 123.028 118.531 122.777C118.681 122.499 118.903 122.266 119.173 122.101L153.115 102.497C153.507 102.267 153.852 102.382 153.96 102.741C153.96 102.741 153.96 102.781 153.96 102.808C153.968 102.869 153.97 102.93 153.967 102.991V102.991Z" fill="#FAFAFA"/>
<path d="M118.99 150.696L118.882 150.737C118.835 150.756 118.785 150.77 118.733 150.777C118.658 150.798 118.581 150.811 118.504 150.818H118.274C118.115 150.817 117.956 150.799 117.801 150.764C117.657 150.731 117.518 150.679 117.388 150.608L116.401 150.034C116.145 149.868 115.932 149.643 115.779 149.379C115.626 149.114 115.538 148.818 115.522 148.513V122.02C115.533 121.723 115.616 121.433 115.766 121.175L118.504 122.777C118.357 123.028 118.276 123.312 118.267 123.602V150.115C118.267 150.608 118.544 150.845 118.99 150.696Z" fill="#E0E0E0"/>
<path d="M121.012 145.694V128.023C121.023 127.82 121.083 127.622 121.185 127.446C121.287 127.27 121.429 127.12 121.6 127.009L123.175 126.096C123.499 125.914 123.756 126.096 123.756 126.434V144.085C123.746 144.288 123.688 144.485 123.587 144.661C123.486 144.838 123.345 144.987 123.175 145.099L121.6 146.005C121.248 146.221 121.012 146.066 121.012 145.694Z" fill="#2C557D"/>
<path d="M126.507 142.523V121.682C126.517 121.479 126.575 121.281 126.676 121.105C126.777 120.929 126.919 120.779 127.089 120.668L128.684 119.749C129.009 119.566 129.272 119.749 129.272 120.087V140.928C129.262 141.132 129.204 141.33 129.101 141.506C128.999 141.683 128.856 141.832 128.684 141.942L127.109 142.855C126.764 143.051 126.507 142.895 126.507 142.523Z" fill="#2C557D"/>
<path d="M131.997 139.353V129.348C132.008 129.145 132.068 128.947 132.17 128.771C132.272 128.595 132.414 128.445 132.585 128.334L134.16 127.428C134.478 127.239 134.741 127.394 134.741 127.766V137.764C134.732 137.967 134.675 138.166 134.574 138.342C134.473 138.518 134.331 138.668 134.16 138.778L132.585 139.691C132.26 139.88 131.997 139.725 131.997 139.353Z" fill="#2C557D"/>
<path d="M137.472 136.189V123.217C137.483 123.013 137.542 122.815 137.645 122.639C137.747 122.463 137.889 122.313 138.06 122.203L139.635 121.29C139.96 121.108 140.224 121.256 140.224 121.628V134.621C140.214 134.825 140.155 135.023 140.053 135.199C139.95 135.376 139.807 135.525 139.635 135.635L138.06 136.547C137.749 136.716 137.472 136.561 137.472 136.189Z" fill="#2C557D"/>
<path d="M142.982 133.019V128.604C142.992 128.402 143.051 128.204 143.152 128.028C143.253 127.852 143.394 127.702 143.563 127.59L145.145 126.678C145.463 126.495 145.726 126.644 145.726 127.016V131.43C145.715 131.633 145.657 131.83 145.556 132.006C145.455 132.182 145.314 132.332 145.145 132.444L143.556 133.357C143.245 133.539 142.982 133.391 142.982 133.019Z" fill="#2C557D"/>
<path d="M148.471 129.848V115.341C148.482 115.138 148.542 114.94 148.644 114.764C148.746 114.588 148.888 114.438 149.059 114.327L150.634 113.421C150.958 113.232 151.222 113.421 151.222 113.759V128.26C151.212 128.463 151.153 128.662 151.051 128.838C150.949 129.015 150.806 129.164 150.634 129.274L149.059 130.186C148.734 130.369 148.471 130.22 148.471 129.848Z" fill="#2C557D"/>
<path d="M203.355 74.1865C203.247 73.8282 202.902 73.7132 202.51 73.9431L160.335 98.2791C160.064 98.4435 159.843 98.6768 159.692 98.9551L156.955 97.353C157.104 97.0761 157.323 96.8431 157.59 96.677L199.759 72.341C200.031 72.201 200.332 72.128 200.638 72.128C200.943 72.128 201.245 72.201 201.516 72.341L202.51 72.9088C202.729 73.055 202.916 73.2433 203.061 73.4626C203.206 73.682 203.306 73.9281 203.355 74.1865Z" fill="#EBEBEB"/>
<path d="M203.389 74.4569V100.97C203.372 101.274 203.285 101.569 203.133 101.833C202.982 102.097 202.771 102.323 202.517 102.491L162.207 125.765L160.341 126.847L160.206 126.914C159.787 127.063 159.483 126.827 159.483 126.333V99.8204C159.492 99.5301 159.573 99.2466 159.719 98.9957C159.87 98.7174 160.091 98.4841 160.362 98.3197L202.537 73.9837C202.929 73.7538 203.274 73.8687 203.382 74.227C203.382 74.227 203.382 74.2676 203.382 74.2946C203.389 74.3484 203.391 74.4027 203.389 74.4569V74.4569Z" fill="#FAFAFA"/>
<path d="M160.179 126.914L160.071 126.955C160.023 126.975 159.973 126.988 159.922 126.996C159.847 127.016 159.77 127.03 159.692 127.036H159.462C159.303 127.035 159.145 127.017 158.989 126.982C158.845 126.95 158.706 126.897 158.577 126.827L157.59 126.252C157.334 126.086 157.121 125.861 156.968 125.597C156.815 125.333 156.727 125.036 156.711 124.731V98.2385C156.721 97.9411 156.805 97.6508 156.955 97.3935L159.692 98.9957C159.546 99.2466 159.465 99.5301 159.456 99.8204V126.333C159.456 126.827 159.78 127.063 160.179 126.914Z" fill="#E0E0E0"/>
<path d="M175.065 96.0212L172.881 104.133C172.677 104.782 172.361 105.391 171.948 105.931L164.898 114.402C164.442 114.078 164.056 113.666 163.763 113.19C163.47 112.713 163.277 112.183 163.194 111.63C162.701 108.926 164.093 105.181 166.817 101.902C167.284 101.348 167.757 100.828 168.244 100.334C170.147 98.3803 172.484 96.9026 175.065 96.0212V96.0212Z" fill="#2C557D"/>
<path d="M180.939 106.269C177.809 111.535 171.86 115.51 167.419 115.233C166.81 115.211 166.21 115.078 165.648 114.841L172.597 106.492C172.969 106.09 173.483 105.848 174.03 105.816H174.105L180.939 106.269Z" fill="#2C557D"/>
<path d="M180.337 95.886L173.861 103.667L176.004 95.7508C177.422 95.3033 178.95 95.351 180.337 95.886Z" fill="#2C557D"/>
<path d="M181.412 105.472L174.172 105.026C174.091 105.02 174.011 105.002 173.936 104.971C173.946 104.923 173.967 104.877 173.996 104.836C174.013 104.807 174.034 104.78 174.057 104.755L181.108 96.2849C183.4 97.8667 183.521 101.409 181.412 105.472Z" fill="#2C557D"/>
<path d="M185.705 90.3428C185.705 90.8296 186.104 91.0188 186.584 90.7146L199.766 83.1029C200.007 82.9607 200.211 82.7646 200.364 82.53C200.516 82.2955 200.612 82.0288 200.644 81.7509C200.644 81.2642 200.252 81.0749 199.766 81.3723L186.584 88.9841C186.344 89.1293 186.14 89.327 185.988 89.5624C185.836 89.7978 185.739 90.0646 185.705 90.3428V90.3428Z" fill="#2C557D"/>
<path d="M185.705 95.6427C185.705 96.1294 186.104 96.3187 186.584 96.0145L199.766 88.4095C200.011 88.262 200.218 88.0593 200.37 87.8175C200.523 87.5757 200.617 87.3015 200.644 87.0169C200.644 86.5302 200.252 86.3409 199.766 86.6451L186.584 94.2501C186.34 94.3988 186.133 94.6018 185.981 94.8434C185.828 95.085 185.734 95.3585 185.705 95.6427Z" fill="#E0E0E0"/>
<path d="M185.705 98.9145C185.705 99.4013 186.104 99.5905 186.584 99.2863L199.766 91.6746C200.011 91.529 200.218 91.3277 200.371 91.0869C200.524 90.8461 200.617 90.5726 200.644 90.2888C200.644 89.8021 200.252 89.6128 199.766 89.9102L186.584 97.522C186.34 97.6706 186.133 97.8737 185.981 98.1152C185.828 98.3568 185.734 98.6304 185.705 98.9145Z" fill="#E0E0E0"/>
<path d="M185.705 102.173C185.705 102.66 186.104 102.849 186.584 102.551L199.766 94.9397C200.012 94.7935 200.22 94.5911 200.372 94.349C200.525 94.1069 200.618 93.8321 200.644 93.5471C200.644 93.0604 200.252 92.8711 199.766 93.1753L186.584 100.821C186.344 100.964 186.14 101.161 185.987 101.395C185.835 101.629 185.738 101.895 185.705 102.173V102.173Z" fill="#E0E0E0"/>
<path d="M185.705 105.451C185.705 105.938 186.104 106.127 186.584 105.83L199.766 98.2183C200.011 98.0708 200.218 97.8681 200.37 97.6263C200.523 97.3845 200.617 97.1103 200.644 96.8257C200.644 96.339 200.252 96.1497 199.766 96.4539L186.584 104.066C186.339 104.212 186.133 104.414 185.98 104.655C185.828 104.895 185.733 105.168 185.705 105.451V105.451Z" fill="#E0E0E0"/>
<path d="M107.248 99.5635C107.14 99.1984 106.802 99.0835 106.403 99.3201L83.4192 112.57C83.159 112.74 82.9453 112.972 82.7973 113.246L80.0798 111.637C80.2259 111.362 80.44 111.129 80.7017 110.961L103.686 97.7045C103.958 97.5677 104.259 97.4965 104.565 97.4965C104.87 97.4965 105.171 97.5677 105.443 97.7045L106.43 98.2791C106.646 98.4266 106.83 98.6166 106.971 98.8374C107.112 99.0581 107.206 99.3052 107.248 99.5635V99.5635Z" fill="#EBEBEB"/>
<path d="M107.282 99.8271V107.31C107.266 107.615 107.177 107.912 107.025 108.176C106.872 108.44 106.659 108.665 106.403 108.831L83.4192 122.081L83.257 122.162H83.2165C82.8244 122.277 82.5405 122.04 82.5405 121.561V114.091C82.549 113.785 82.6375 113.486 82.7973 113.225C82.9453 112.952 83.159 112.72 83.4192 112.549L106.403 99.2999C106.802 99.0633 107.14 99.1782 107.248 99.5432C107.252 99.5656 107.252 99.5884 107.248 99.6108C107.267 99.6815 107.279 99.754 107.282 99.8271V99.8271Z" fill="#FAFAFA"/>
<path d="M83.2435 122.176C83.1363 122.216 83.0253 122.245 82.9122 122.264C82.568 122.327 82.2133 122.296 81.8847 122.176L81.6887 122.081L80.7017 121.513C80.4456 121.347 80.2324 121.123 80.0796 120.858C79.9269 120.594 79.8389 120.297 79.8229 119.992V112.509C79.8348 112.204 79.9231 111.906 80.0798 111.644L82.8244 113.225C82.6646 113.486 82.576 113.785 82.5675 114.091V121.574C82.5675 122.054 82.8514 122.291 83.2435 122.176Z" fill="#E0E0E0"/>
<path d="M107.248 113.827C107.14 113.462 106.802 113.347 106.403 113.584L83.4192 126.833C83.159 127.004 82.9453 127.236 82.7973 127.509L80.0528 125.927C80.1988 125.653 80.4129 125.42 80.6747 125.251L103.659 111.995C103.931 111.858 104.232 111.787 104.537 111.787C104.843 111.787 105.144 111.858 105.416 111.995L106.403 112.57C106.621 112.712 106.809 112.896 106.954 113.112C107.099 113.328 107.199 113.571 107.248 113.827V113.827Z" fill="#EBEBEB"/>
<path d="M107.282 114.091V121.574C107.268 121.887 107.178 122.192 107.02 122.463C106.863 122.734 106.642 122.962 106.376 123.129L83.3922 136.378L83.23 136.46H83.1894C82.7973 136.574 82.5134 136.338 82.5134 135.858V128.354C82.5219 128.048 82.6105 127.75 82.7703 127.489C82.9182 127.216 83.132 126.983 83.3922 126.813L106.376 113.563C106.775 113.327 107.113 113.442 107.221 113.807C107.225 113.829 107.225 113.852 107.221 113.874C107.249 113.944 107.27 114.017 107.282 114.091V114.091Z" fill="#FAFAFA"/>
<path d="M83.2435 136.439C83.1363 136.48 83.0253 136.509 82.9122 136.527C82.568 136.59 82.2133 136.56 81.8847 136.439L81.6887 136.345L80.7017 135.777C80.4456 135.611 80.2324 135.386 80.0796 135.122C79.9269 134.858 79.8389 134.561 79.8229 134.256V126.773C79.8348 126.467 79.9231 126.17 80.0798 125.907L82.8244 127.489C82.6646 127.75 82.576 128.048 82.5675 128.354V135.838C82.5675 136.318 82.8514 136.554 83.2435 136.439Z" fill="#E0E0E0"/>
<path d="M107.248 128.097C107.14 127.732 106.802 127.618 106.403 127.854L83.4192 141.104C83.159 141.274 82.9453 141.506 82.7973 141.78L80.0528 140.198C80.1988 139.923 80.4129 139.69 80.6747 139.522L103.659 126.266C103.931 126.129 104.232 126.057 104.537 126.057C104.843 126.057 105.144 126.129 105.416 126.266L106.403 126.84C106.621 126.982 106.809 127.167 106.954 127.383C107.099 127.599 107.199 127.842 107.248 128.097Z" fill="#EBEBEB"/>
<path d="M107.282 128.361V135.844C107.266 136.149 107.177 136.446 107.025 136.71C106.872 136.974 106.659 137.199 106.403 137.365L83.4192 150.615L83.257 150.696H83.2165C82.8244 150.811 82.5405 150.574 82.5405 150.095V142.625C82.549 142.319 82.6375 142.02 82.7973 141.759C82.9453 141.486 83.159 141.254 83.4192 141.083L106.376 127.861C106.775 127.624 107.113 127.739 107.221 128.104C107.225 128.127 107.225 128.149 107.221 128.172C107.248 128.233 107.268 128.296 107.282 128.361V128.361Z" fill="#FAFAFA"/>
<path d="M83.2435 150.71C83.1363 150.75 83.0253 150.779 82.9122 150.798C82.568 150.861 82.2133 150.83 81.8847 150.71L81.6887 150.615L80.7017 150.047C80.4456 149.881 80.2324 149.657 80.0796 149.392C79.9269 149.128 79.8389 148.831 79.8229 148.526V141.043C79.8348 140.738 79.9231 140.44 80.0798 140.178L82.8244 141.759C82.6646 142.02 82.576 142.319 82.5675 142.625V150.108C82.5675 150.588 82.8514 150.845 83.2435 150.71Z" fill="#E0E0E0"/>
<path d="M107.248 142.368C107.14 142.003 106.802 141.888 106.403 142.124L83.4192 155.374C83.159 155.544 82.9453 155.777 82.7973 156.05L80.0528 154.468C80.1988 154.193 80.4129 153.961 80.6747 153.792L103.659 140.536C103.931 140.399 104.232 140.328 104.537 140.328C104.843 140.328 105.144 140.399 105.416 140.536L106.403 141.11C106.621 141.252 106.809 141.437 106.954 141.653C107.099 141.869 107.199 142.112 107.248 142.368V142.368Z" fill="#EBEBEB"/>
<path d="M107.282 142.631V150.115C107.266 150.42 107.177 150.716 107.025 150.98C106.872 151.245 106.659 151.469 106.403 151.636L83.4192 164.885L83.257 164.966H83.2165C82.8244 165.081 82.5405 164.845 82.5405 164.365V156.929C82.549 156.623 82.6375 156.325 82.7973 156.064C82.9453 155.79 83.159 155.558 83.4192 155.388L106.403 142.138C106.802 141.901 107.14 142.016 107.248 142.381C107.252 142.404 107.252 142.427 107.248 142.449C107.265 142.509 107.276 142.57 107.282 142.631Z" fill="#FAFAFA"/>
<path d="M83.2435 164.98C83.1363 165.02 83.0253 165.05 82.9122 165.068C82.568 165.131 82.2133 165.1 81.8847 164.98L81.6887 164.885L80.7017 164.318C80.4456 164.151 80.2324 163.927 80.0796 163.663C79.9269 163.398 79.8389 163.101 79.8229 162.797V155.313C79.8348 155.008 79.9231 154.71 80.0798 154.448L82.8244 156.03C82.6646 156.291 82.576 156.589 82.5675 156.895V164.365C82.5675 164.858 82.8514 165.095 83.2435 164.98Z" fill="#E0E0E0"/>
<path d="M109.662 87.7132C109.69 87.7051 109.721 87.7051 109.749 87.7132L107.282 86.2936V85.5298C107.288 85.4646 107.288 85.3989 107.282 85.3337C107.286 85.3113 107.286 85.2885 107.282 85.2661C107.233 85.0104 107.133 84.7673 106.988 84.5512C106.843 84.3352 106.655 84.1506 106.437 84.0088L105.45 83.4341C105.177 83.2974 104.876 83.2261 104.571 83.2261C104.266 83.2261 103.965 83.2974 103.692 83.4341L80.7085 96.6905C80.4527 96.857 80.2398 97.0816 80.0871 97.3458C79.9344 97.6101 79.8462 97.9067 79.8297 98.2115V105.695C79.8457 106 79.9336 106.297 80.0864 106.561C80.2391 106.825 80.4523 107.05 80.7085 107.216L81.6954 107.784L81.8915 107.878C82.22 107.999 82.5748 108.029 82.919 107.966C83.0321 107.948 83.1431 107.919 83.2502 107.878H83.2908L83.453 107.797L106.437 94.5476C106.693 94.3811 106.906 94.1565 107.058 93.8922C107.211 93.628 107.299 93.3314 107.316 93.0266V90.8837L109.824 87.9904C109.847 87.9637 109.862 87.9303 109.865 87.8948C109.869 87.8594 109.861 87.8238 109.843 87.793C109.825 87.7623 109.798 87.7381 109.765 87.7237C109.733 87.7094 109.696 87.7057 109.662 87.7132V87.7132Z" fill="#2C557D"/>
<path opacity="0.1" d="M83.2435 107.905C83.1363 107.946 83.0253 107.975 82.9122 107.993C82.568 108.056 82.2133 108.026 81.8847 107.905L81.6887 107.811L80.6882 107.243C80.432 107.077 80.2188 106.852 80.0661 106.588C79.9133 106.324 79.8254 106.027 79.8094 105.722V98.2385C79.8212 97.9331 79.9096 97.6356 80.0663 97.3732L82.8108 98.9551C82.6511 99.2161 82.5625 99.5144 82.554 99.8204V107.304C82.5675 107.784 82.8514 108.02 83.2435 107.905Z" fill="black"/>
<path opacity="0.4" d="M107.248 85.2728C107.14 84.9078 106.802 84.7929 106.403 85.0295L83.4192 98.2791C83.159 98.4493 82.9453 98.6816 82.7973 98.9551L80.0528 97.3732C80.1988 97.0984 80.4129 96.8656 80.6747 96.6972L103.659 83.4409C103.931 83.3041 104.232 83.2329 104.537 83.2329C104.843 83.2329 105.144 83.3041 105.416 83.4409L106.403 84.0155C106.621 84.1574 106.809 84.3419 106.954 84.558C107.099 84.774 107.199 85.0172 107.248 85.2728V85.2728Z" fill="white"/>
<path opacity="0.4" d="M109.662 87.7132H107.282V86.3206L109.749 87.7402C109.723 87.7229 109.693 87.7136 109.662 87.7132Z" fill="white"/>
<path d="M35.6599 208.521L40.3919 205.817C40.3919 205.817 42.67 193.284 40.9665 182.515C38.5734 167.373 28.2644 162.148 24.5194 163.648C20.7743 165.149 19.8955 169.644 26.6555 178.392C30.6642 183.556 35.7883 194.467 35.6599 208.521Z" fill="#2C557D"/>
<g opacity="0.1">
<path opacity="0.1" d="M35.6599 208.521L40.3919 205.817C40.3919 205.817 42.67 193.284 40.9665 182.515C38.5734 167.373 28.2644 162.148 24.5194 163.648C20.7743 165.149 19.8955 169.644 26.6555 178.392C30.6642 183.556 35.7883 194.467 35.6599 208.521Z" fill="black"/>
</g>
<path d="M37.3769 202.512H37.3296C37.2421 202.498 37.1634 202.451 37.1103 202.38C37.0572 202.309 37.034 202.221 37.0457 202.133C39.0061 187.937 33.3006 172.423 26.9057 166.163C26.874 166.132 26.8488 166.094 26.8317 166.053C26.8145 166.012 26.8057 165.968 26.8057 165.923C26.8057 165.878 26.8145 165.834 26.8317 165.793C26.8488 165.752 26.874 165.714 26.9057 165.683C26.9365 165.652 26.9733 165.627 27.0139 165.609C27.0546 165.592 27.0982 165.584 27.1423 165.584C27.1863 165.584 27.2299 165.592 27.2706 165.609C27.3112 165.627 27.348 165.652 27.3789 165.683C33.9023 172.058 39.7159 187.842 37.7284 202.234C37.7124 202.315 37.6682 202.387 37.6038 202.438C37.5393 202.489 37.4589 202.515 37.3769 202.512V202.512Z" fill="white"/>
<path d="M22.5049 216.126C21.7613 216.552 20.2132 215.612 19.6251 215.214C18.6135 214.531 17.7941 213.6 17.2456 212.51C16.6266 211.253 16.4185 209.834 16.6507 208.454C16.7692 207.73 16.9386 207.017 17.1577 206.317C17.3605 205.641 17.5566 204.932 17.7526 204.242C17.9967 203.572 18.1003 202.858 18.0568 202.146C17.881 200.727 16.6169 199.733 15.4745 198.875C14.2036 197.921 12.8854 196.671 12.8922 194.961C12.9894 193.634 13.5189 192.375 14.3997 191.378C15.2176 190.344 16.1843 189.431 16.9279 188.336C17.5184 187.58 17.8332 186.645 17.8202 185.686C17.7424 185.1 17.5445 184.536 17.2388 184.03C16.5463 182.968 15.9382 181.854 15.4204 180.697C15.008 179.5 15.0689 177.993 16.0018 177.162C16.4185 176.85 16.8931 176.624 17.398 176.497C17.9028 176.371 18.4278 176.346 18.9424 176.425C19.9021 176.551 20.8238 176.881 21.6464 177.391C24.3504 178.899 25.9119 182.123 28.7917 183.273C29.9332 183.631 31.0959 183.918 32.2731 184.131C32.864 184.239 33.4257 184.47 33.9217 184.809C34.4178 185.148 34.8372 185.587 35.1528 186.098C36.2074 188.207 34.247 190.83 34.9906 193.054C35.6666 195.035 37.5729 195.799 38.6545 197.583C39.1007 198.371 39.2786 199.282 39.1615 200.179C39.0701 201.699 38.6988 203.189 38.0664 204.573C37.3635 205.947 36.5591 207.267 35.6598 208.521C35.6125 208.568 22.6198 216.059 22.5049 216.126Z" fill="#2C557D"/>
<path d="M30.2045 212.023C30.1601 212.021 30.1165 212.011 30.0762 211.992C30.0358 211.973 29.9995 211.947 29.9694 211.914C29.9393 211.882 29.9159 211.843 29.9005 211.802C29.8852 211.76 29.8782 211.716 29.88 211.671C30.4344 198.253 24.1138 183.435 19.517 179.129C19.455 179.065 19.4203 178.981 19.4203 178.892C19.4203 178.804 19.455 178.719 19.517 178.655C19.5813 178.593 19.6674 178.558 19.7569 178.558C19.8465 178.558 19.9326 178.593 19.9969 178.655C24.6884 183.049 31.1374 198.111 30.5763 211.719C30.5721 211.763 30.5591 211.806 30.5381 211.846C30.5171 211.885 30.4884 211.92 30.4539 211.948C30.4193 211.977 30.3795 211.998 30.3367 212.011C30.2939 212.023 30.249 212.027 30.2045 212.023V212.023Z" fill="white"/>
<path d="M28.19 196.171C28.1589 196.178 28.1266 196.178 28.0954 196.171C24.9143 195.298 21.6483 194.773 18.3543 194.602C18.3099 194.601 18.2662 194.59 18.2259 194.572C18.1855 194.553 18.1493 194.527 18.1191 194.494C18.089 194.461 18.0656 194.423 18.0502 194.381C18.0349 194.34 18.028 194.295 18.0298 194.251C18.0306 194.206 18.0405 194.162 18.0588 194.121C18.0771 194.081 18.1034 194.044 18.1363 194.014C18.1691 193.983 18.2078 193.96 18.2499 193.945C18.292 193.93 18.3367 193.924 18.3813 193.926C21.7328 194.102 25.0555 194.639 28.2914 195.528C28.3811 195.542 28.4617 195.59 28.5156 195.663C28.5695 195.736 28.5922 195.828 28.5788 195.917C28.5653 196.007 28.5168 196.087 28.4439 196.141C28.371 196.195 28.2797 196.218 28.19 196.204V196.171Z" fill="white"/>
<path d="M78.8698 181.4C78.8318 180.998 78.6861 180.614 78.4482 180.288C78.2103 179.962 77.8888 179.706 77.5178 179.548C76.5231 179.041 75.4229 178.777 74.3068 178.777C73.1907 178.777 72.0904 179.041 71.0958 179.548C70.7255 179.708 70.4049 179.964 70.1671 180.289C69.9294 180.615 69.7832 180.999 69.7438 181.4V181.4L67.9456 228.632C67.878 229.612 68.4932 230.606 69.7911 231.336C71.1819 232.043 72.7198 232.411 74.2797 232.411C75.8397 232.411 77.3776 232.043 78.7684 231.336C80.0663 230.586 80.6747 229.592 80.6138 228.632L78.8698 181.4Z" fill="#2C557D"/>
<path opacity="0.15" d="M71.1228 179.548C69.3517 180.569 69.3517 182.252 71.1228 183.252C72.1174 183.759 73.2177 184.023 74.3338 184.023C75.4499 184.023 76.5502 183.759 77.5448 183.252C79.3159 182.231 79.3159 180.548 77.5448 179.548C76.5502 179.041 75.4499 178.777 74.3338 178.777C73.2177 178.777 72.1174 179.041 71.1228 179.548V179.548Z" fill="black"/>
<path d="M76.2739 166.339C75.6732 166.032 75.0083 165.872 74.3338 165.872C73.6593 165.872 72.9944 166.032 72.3937 166.339C72.1721 166.436 71.9806 166.59 71.8391 166.786C71.6976 166.983 71.6113 167.213 71.5892 167.454V181.4C71.6101 181.642 71.6959 181.874 71.8374 182.072C71.979 182.269 72.1711 182.425 72.3937 182.522C72.9955 182.825 73.66 182.983 74.3338 182.983C75.0077 182.983 75.6721 182.825 76.2739 182.522C76.4965 182.425 76.6886 182.269 76.8302 182.072C76.9718 181.874 77.0575 181.642 77.0784 181.4V167.454C77.0563 167.213 76.9701 166.983 76.8286 166.786C76.6871 166.59 76.4955 166.436 76.2739 166.339V166.339Z" fill="#263238"/>
<path d="M104.889 132.18C104.889 131.903 104.889 131.633 104.849 131.362C104.808 131.092 104.815 130.828 104.788 130.565C104.761 130.301 104.754 130.213 104.734 130.038C104.686 129.578 104.619 129.125 104.544 128.686C104.544 128.489 104.477 128.287 104.436 128.091C104.396 127.895 104.362 127.719 104.321 127.536C104.206 127.036 104.085 126.549 103.943 126.083C103.868 125.86 103.801 125.637 103.727 125.407C103.712 125.374 103.701 125.34 103.693 125.306C103.612 125.089 103.537 124.88 103.456 124.677C103.375 124.474 103.267 124.204 103.159 124.001C103.051 123.798 103.01 123.67 102.922 123.507C102.873 123.386 102.814 123.268 102.746 123.156C102.681 123.011 102.607 122.871 102.523 122.737C102.523 122.737 102.489 122.669 102.469 122.642C102.449 122.615 102.327 122.399 102.253 122.277C102.178 122.155 102.151 122.122 102.104 122.047C101.758 121.502 101.369 120.984 100.941 120.499L100.725 120.256L100.543 120.067L100.306 119.83C100.094 119.607 99.8679 119.397 99.6299 119.201C99.515 119.1 99.3933 119.005 99.2717 118.917L98.8999 118.647C98.7067 118.505 98.5058 118.374 98.2982 118.255L98.136 118.153H98.1022L88.5233 112.624H88.4692C86.6314 111.599 84.5568 111.074 82.4528 111.103C79.3161 111.103 75.7739 112.13 72.0221 114.293C59.1375 121.729 48.6866 139.833 48.6866 154.718C48.6866 162.154 51.2824 167.359 55.4466 169.807H55.4871L65.0728 175.33H65.1134L65.2283 175.39C65.4081 175.497 65.5931 175.594 65.7826 175.681C66.0125 175.796 66.2491 175.897 66.4586 175.992C66.6682 176.087 66.8845 176.161 67.1346 176.229L67.4794 176.33C67.6001 176.376 67.7245 176.412 67.8512 176.438C67.9757 176.476 68.1021 176.508 68.2297 176.533C68.3206 176.56 68.4132 176.58 68.5069 176.594C68.6691 176.627 68.8449 176.661 69.0139 176.682C69.0519 176.688 69.0908 176.688 69.1288 176.682L69.7372 176.763C73.2186 177.128 77.2543 176.147 81.5807 173.653C94.4721 166.217 104.923 148.107 104.923 133.228C104.91 132.883 104.903 132.532 104.889 132.18ZM89.2601 121.655C89.7613 123.506 90.007 125.416 89.9902 127.334C89.9902 140.461 80.3842 157.078 69.0342 163.662C67.375 164.648 65.5836 165.392 63.7141 165.872C63.2107 164.02 62.9628 162.107 62.9772 160.187C62.9772 147.059 72.5832 130.443 83.9332 123.859C85.5943 122.873 87.3882 122.131 89.2601 121.655V121.655Z" fill="#2C557D"/>
<path opacity="0.1" d="M64.7414 175.113L55.4328 169.773C51.2349 167.319 48.6728 162.1 48.6728 154.691C48.6728 148.053 50.7549 140.779 54.1958 134.1L63.7814 139.63C60.3338 146.309 58.2585 153.583 58.2585 160.221C58.2247 167.447 60.6989 172.598 64.7414 175.113Z" fill="black"/>
<path opacity="0.4" d="M104.889 132.18C104.889 131.903 104.889 131.633 104.848 131.362C104.808 131.092 104.815 130.828 104.788 130.565C104.761 130.301 104.754 130.213 104.734 130.038C104.686 129.578 104.619 129.125 104.544 128.686C104.544 128.489 104.477 128.287 104.436 128.091C104.396 127.895 104.362 127.719 104.321 127.536C104.206 127.036 104.085 126.549 103.943 126.083C103.868 125.86 103.801 125.637 103.726 125.407C103.712 125.374 103.701 125.34 103.692 125.306C103.611 125.089 103.537 124.88 103.456 124.677C103.375 124.474 103.267 124.204 103.158 124.001C103.05 123.798 103.01 123.67 102.922 123.507C102.873 123.386 102.814 123.268 102.746 123.156C102.681 123.011 102.607 122.871 102.523 122.737C102.523 122.737 102.489 122.669 102.469 122.642C102.449 122.615 102.327 122.399 102.253 122.277C102.178 122.155 102.151 122.122 102.104 122.047C101.757 121.502 101.369 120.984 100.941 120.499L100.725 120.256L100.542 120.067L100.306 119.83C100.093 119.607 99.8677 119.397 99.6297 119.201C99.5148 119.1 99.3931 119.005 99.2714 118.917L98.8996 118.647C98.7064 118.505 98.5056 118.374 98.298 118.255C94.0595 115.679 88.158 115.983 81.594 119.762C68.7027 127.198 58.2518 145.302 58.2518 160.187C58.2518 167.725 60.9558 172.991 65.2484 175.384C65.4281 175.49 65.6131 175.587 65.8027 175.674C66.0325 175.789 66.2691 175.891 66.4787 175.985C66.6882 176.08 66.9046 176.154 67.1547 176.222L67.4994 176.323C67.6202 176.369 67.7445 176.406 67.8712 176.431C67.9958 176.469 68.1221 176.501 68.2498 176.526C68.3407 176.553 68.4333 176.573 68.527 176.587C68.6892 176.621 68.865 176.654 69.034 176.675C69.072 176.681 69.1108 176.681 69.1489 176.675L69.7573 176.756C73.2387 177.121 77.2744 176.141 81.6008 173.646C94.4921 166.21 104.943 148.1 104.943 133.221C104.909 132.883 104.903 132.532 104.889 132.18ZM79.201 169.57C76.3077 171.24 73.5226 172.119 71.1431 172.119C66.6747 172.119 64.6197 169.07 63.7071 165.872C63.2037 164.02 62.9558 162.107 62.9702 160.187C62.9702 147.059 72.5762 130.443 83.9262 123.859C85.5873 122.873 87.3812 122.131 89.2531 121.655C90.1379 121.435 91.0454 121.319 91.9571 121.31C99.3458 121.31 100.137 129.652 100.137 133.242C100.171 146.37 90.5713 163.013 79.201 169.57Z" fill="white"/>
<path opacity="0.1" d="M100.171 133.269C100.171 146.397 90.5713 163.013 79.2145 169.597C76.3213 171.267 73.5361 172.146 71.1566 172.146C66.6882 172.146 64.6332 169.097 63.7206 165.899C65.5901 165.419 67.3816 164.675 69.0407 163.689C80.4111 157.125 89.9967 140.488 89.9967 127.361C90.0135 125.443 89.7679 123.533 89.2667 121.682C90.1514 121.462 91.0589 121.346 91.9707 121.337C99.3796 121.31 100.171 129.652 100.171 133.269Z" fill="black"/>
<path opacity="0.7" d="M96.0875 130.95C96.0875 144.078 86.4883 160.694 75.1315 167.278C72.2382 168.948 69.4531 169.827 67.0736 169.827C66.6002 169.828 66.1276 169.79 65.6607 169.712C64.7472 168.583 64.0816 167.275 63.7071 165.872C63.2037 164.02 62.9558 162.107 62.9702 160.187C62.9702 147.059 72.5762 130.443 83.9262 123.859C85.5873 122.873 87.3812 122.131 89.2531 121.655C90.1379 121.435 91.0454 121.319 91.9571 121.31C92.4327 121.309 92.9075 121.348 93.3767 121.425C95.7427 124.177 96.0875 128.591 96.0875 130.95Z" fill="white"/>
<path opacity="0.1" d="M73.0088 183.901L71.7988 232.12C71.1254 231.953 70.4775 231.696 69.8722 231.356C68.5743 230.606 67.9591 229.612 68.0267 228.652L69.8249 181.427C69.8643 181.828 70.0105 182.212 70.2482 182.538C70.486 182.863 70.8066 183.119 71.1769 183.279C71.7494 183.586 72.3683 183.796 73.0088 183.901V183.901Z" fill="black"/>
<path d="M252.237 136.568C252.237 136.047 251.229 130.484 250.56 127.415L244.05 129.443L245.206 135.141L250.695 139.542C252.392 139.17 252.277 137.088 252.237 136.568Z" fill="#FFA8A7"/>
<path d="M235.229 108.689H236.614C239.185 108.686 241.65 107.663 243.467 105.844C245.285 104.025 246.306 101.56 246.308 98.9889V98.9889C246.306 96.2344 245.211 93.5934 243.263 91.6463C241.314 89.6993 238.673 88.6055 235.918 88.6055V88.6055C233.164 88.6055 230.522 89.6993 228.574 91.6463C226.625 93.5934 225.53 96.2344 225.528 98.9889C225.528 101.562 226.55 104.029 228.369 105.848C230.188 107.667 232.656 108.689 235.229 108.689Z" fill="#263238"/>
<path d="M220.755 124.893L217.68 130.531L222.466 134.634L226.853 127.685L220.755 124.893Z" fill="#F28F8F"/>
<path d="M232.301 112.313C229.253 112.347 225.893 113.455 224.737 115.848C223.581 118.241 219.944 125.698 219.944 125.698C219.944 125.698 222.648 129.646 226.921 129.368L232.301 112.313Z" fill="#2C557D"/>
<g opacity="0.1">
<path opacity="0.1" d="M232.301 112.313C229.253 112.347 225.893 113.455 224.737 115.848C223.581 118.241 219.944 125.698 219.944 125.698C219.944 125.698 222.648 129.646 226.921 129.368L232.301 112.313Z" fill="black"/>
</g>
<path d="M242.597 212.584V211.908C242.333 212.692 241.11 216.065 239.258 217.755C237.784 219.107 235.776 220.649 235.262 222.143C234.749 223.637 238.061 224.225 239.44 223.981C241.277 223.671 242.96 222.766 244.233 221.406C245.024 220.439 245.531 219.283 246.092 218.519C246.653 217.755 247.964 216.897 248.269 216.011C248.361 215.186 248.268 214.35 247.998 213.564C247.782 212.739 247.552 211.827 247.268 211.908V212.415C246.603 212.94 245.777 213.22 244.929 213.206C244.28 213.24 242.59 213.104 242.597 212.584Z" fill="#263238"/>
<path d="M237.926 218.938C238.385 218.533 238.845 218.134 239.278 217.755C240.523 216.444 241.493 214.897 242.13 213.206C242.45 212.425 242.615 211.589 242.617 210.745V208.089H247.288V212.415V212.53C247.065 213.503 244.922 216.086 243.706 217.769C242.888 218.898 241.34 220.331 239.487 220.581C237.635 220.831 236.783 220.27 237.926 218.938Z" fill="#FFA8A7"/>
<path d="M225.244 208.075V207.399C224.98 208.183 223.757 211.55 221.905 213.24C220.431 214.592 218.423 216.14 217.909 217.634C217.396 219.128 220.708 219.716 222.08 219.472C223.919 219.163 225.606 218.258 226.88 216.897C227.671 215.93 228.171 214.774 228.739 214.01C229.307 213.246 230.605 212.388 230.916 211.502C231.004 210.677 230.912 209.842 230.645 209.055C230.429 208.23 230.192 207.318 229.915 207.399V207.906C229.249 208.43 228.423 208.709 227.576 208.697C226.893 208.737 225.237 208.602 225.244 208.075Z" fill="#263238"/>
<path d="M220.573 214.436L221.925 213.253C223.168 211.942 224.136 210.395 224.771 208.704C225.096 207.924 225.263 207.088 225.264 206.243V203.573H229.935V207.906V208.028C229.712 209.001 227.569 211.583 226.353 213.267C225.535 214.396 223.987 215.829 222.128 216.079C220.33 216.322 219.43 215.741 220.573 214.436Z" fill="#FFA8A7"/>
<path d="M246.308 140.029C249.932 147.938 246.18 175.796 246.18 175.796C246.288 177.08 247.755 179.602 248.302 185.26C248.978 191.939 247.288 208.69 247.288 208.69C246.575 209.106 245.771 209.34 244.946 209.373C244.121 209.406 243.301 209.237 242.556 208.879C242.556 208.879 238.108 183.644 237.27 177.006C236.54 171.219 235.134 157.612 235.134 157.612L231.152 176.979C231.774 179.204 232.144 181.492 232.254 183.8C232.349 187.721 229.969 204.918 229.969 204.918C229.51 205.797 226.028 206.006 225.116 204.918C225.116 204.918 223.088 180.778 222.648 176.08C222.405 173.274 225.602 138.9 225.602 138.9L246.308 140.029Z" fill="#37474F"/>
<path d="M235.174 157.605L234.005 151.136C234.005 151.136 229.03 150.108 226.772 147.985C228.33 149.81 230.367 151.163 232.653 151.893L233.971 157.551L231.666 174.667L235.174 157.605Z" fill="#263238"/>
<path d="M239.954 112.536C241.285 112.859 242.526 113.476 243.586 114.343C244.646 115.21 245.498 116.305 246.078 117.545C246.931 119.434 247.011 121.581 246.301 123.528L243.063 132.884C243.063 132.884 244.578 136.547 246.335 140.002C238.223 144.538 228.083 142.152 225.643 138.846C225.541 138.17 225.683 134.986 225.487 131.41C225.278 127.577 224.751 123.244 225.352 120.871C226.468 116.47 228.57 112.34 232.741 112.34L239.954 112.536Z" fill="#2C557D"/>
<path d="M239.954 112.536C242.719 112.928 247.032 113.476 248.938 120.209C250.797 126.773 251.229 129.057 251.229 129.057C251.229 129.057 248.958 131.707 244.361 131.68L242.928 126.624L239.954 112.536Z" fill="#2C557D"/>
<path d="M229.408 93.8648C228.313 94.507 226.954 97.2448 227.09 103.058C227.204 107.959 228.793 109.142 229.591 109.521C230.388 109.9 231.93 109.656 233.424 109.406V112.347C233.424 112.347 231.355 114.753 231.484 116.098C231.612 117.444 234.471 117.768 236.405 116.45C237.659 115.546 238.736 114.419 239.582 113.124V106.013C239.739 106.206 239.933 106.366 240.153 106.484C240.372 106.601 240.613 106.674 240.861 106.697C241.109 106.721 241.359 106.694 241.597 106.619C241.835 106.545 242.055 106.424 242.245 106.263C243.895 105.168 243.956 102.45 242.996 101.477C242.036 100.503 239.967 100.801 239.582 102.153C237.618 102.071 235.705 101.499 234.019 100.49C232.784 99.8253 231.723 98.8793 230.922 97.7282C230.121 96.5772 229.602 95.2536 229.408 93.8648V93.8648Z" fill="#FFA8A7"/>
<path d="M232.572 101.821C232.564 101.904 232.574 101.988 232.599 102.067C232.625 102.146 232.666 102.219 232.72 102.282C232.774 102.345 232.84 102.397 232.915 102.434C232.989 102.471 233.07 102.492 233.153 102.497C233.281 102.509 233.409 102.483 233.521 102.421C233.633 102.36 233.725 102.266 233.784 102.153C233.842 102.039 233.866 101.91 233.851 101.783C233.836 101.656 233.783 101.536 233.7 101.439C233.616 101.342 233.506 101.272 233.382 101.238C233.259 101.205 233.128 101.209 233.007 101.25C232.886 101.291 232.78 101.367 232.702 101.469C232.624 101.571 232.579 101.694 232.572 101.821V101.821Z" fill="#263238"/>
<path d="M232.403 105.979L230.97 106.438C230.997 106.534 231.043 106.622 231.104 106.7C231.166 106.777 231.243 106.842 231.329 106.889C231.416 106.937 231.511 106.967 231.61 106.978C231.708 106.989 231.808 106.98 231.903 106.952C232.096 106.887 232.257 106.749 232.351 106.567C232.444 106.385 232.463 106.174 232.403 105.979Z" fill="#F28F8F"/>
<path d="M227.515 99.9285L228.732 99.0633C228.68 98.9799 228.611 98.908 228.529 98.852C228.448 98.796 228.356 98.7571 228.26 98.7375C228.163 98.7179 228.064 98.7181 227.967 98.7381C227.87 98.758 227.779 98.7974 227.698 98.8537C227.535 98.9752 227.426 99.1546 227.392 99.3546C227.358 99.5547 227.402 99.7602 227.515 99.9285V99.9285Z" fill="#263238"/>
<path d="M227.799 101.375C227.797 101.496 227.83 101.615 227.895 101.718C227.96 101.82 228.053 101.902 228.163 101.952C228.273 102.002 228.396 102.019 228.516 102.001C228.635 101.983 228.747 101.93 228.837 101.849C228.927 101.768 228.992 101.662 229.023 101.545C229.053 101.428 229.049 101.304 229.011 101.189C228.972 101.074 228.901 100.973 228.806 100.898C228.711 100.823 228.596 100.777 228.475 100.767C228.391 100.761 228.306 100.773 228.226 100.801C228.146 100.828 228.072 100.872 228.009 100.929C227.946 100.985 227.895 101.054 227.859 101.131C227.823 101.207 227.803 101.291 227.799 101.375V101.375Z" fill="#263238"/>
<path d="M230.713 101.024L230.611 104.735L228.658 104.133L230.713 101.024Z" fill="#F28F8F"/>
<path d="M233.464 109.406C235.039 109.196 238.284 108.27 238.791 106.986C238.588 107.634 238.192 108.205 237.655 108.622C236.682 109.453 233.464 110.386 233.464 110.386V109.406Z" fill="#F28F8F"/>
<path opacity="0.1" d="M244.05 130.031C243.429 128.348 242.898 126.633 242.462 124.893C242.462 124.893 242.719 128.713 243.814 130.768L244.05 130.031Z" fill="black"/>
<path d="M207.621 124.548L225.521 129.26L230.808 151.48L213.786 146.532L207.621 124.548Z" fill="#E0E0E0"/>
<g opacity="0.1">
<path opacity="0.1" d="M215.429 139.245C215.26 139.698 214.279 140.962 212.197 140.86L211.94 139.941L215.429 139.245Z" fill="black"/>
</g>
<g opacity="0.1">
<path opacity="0.1" d="M219.43 139.941C219.505 140.536 220.722 141.631 222.81 142.314C225.149 143.098 228.746 142.686 228.746 142.686L228.421 141.577L219.43 139.941Z" fill="black"/>
</g>
<g opacity="0.1">
<path opacity="0.1" d="M212.866 127.766L212.718 127.09C212.637 126.712 213.684 126.691 215.063 127.05L217.7 127.726C219.052 128.084 220.262 128.679 220.343 129.078L220.492 129.754L212.866 127.766Z" fill="black"/>
</g>
<path d="M211.623 125.191C211.569 124.954 211.994 124.893 212.576 125.049L213.617 125.339C213.617 125.339 213.306 123.859 215.645 124.379C216.265 124.47 216.851 124.719 217.346 125.103C217.841 125.486 218.229 125.992 218.471 126.57L219.586 126.887C220.201 127.063 220.755 127.394 220.83 127.631L220.965 128.057L211.738 125.623C211.738 125.623 211.677 125.427 211.623 125.191Z" fill="#37474F"/>
<path d="M212.894 125.927C213.739 126.13 214.09 126.238 214.212 126.82C214.333 127.401 214.415 127.976 214.415 127.976L218.471 129.051C218.471 129.051 218.274 128.212 218.214 127.881C218.153 127.55 218.288 127.361 218.937 127.53L218.991 127.273L212.596 125.644L212.894 125.927Z" fill="#37474F"/>
<path d="M212.752 127.861L212.603 127.185C212.522 126.806 213.576 126.793 214.949 127.151L217.585 127.827C218.937 128.185 220.147 128.78 220.228 129.179L220.377 129.855L212.752 127.861Z" fill="#37474F"/>
<path d="M250.695 139.508L245.206 135.108C245.206 135.108 233.092 137.264 231.686 137.379C230.932 137.4 230.19 137.193 229.556 136.784C228.923 136.375 228.428 135.783 228.137 135.087C227.596 133.688 226.637 133.864 226.637 133.864C226.637 133.864 227.062 135.635 227.191 136.196C227.319 136.757 223.912 137.23 222.019 136.588C220.127 135.946 217.389 136.879 219.086 139.454C220.782 142.03 224.088 142.334 226.38 142.334C227.338 142.328 228.295 142.262 229.246 142.138C229.99 142.043 230.726 141.969 231.47 141.915C236.168 141.584 248.559 140.178 250.695 139.508Z" fill="#FFA8A7"/>
<path d="M209.446 131.045C209.446 131.045 210.088 133.33 210.237 133.877C210.386 134.425 212.474 135.412 213.786 135.77C215.097 136.128 216.544 136.561 215.922 138.4C215.347 140.096 213.184 140.489 212.076 140.428C210.967 140.367 209.466 139.326 208.871 137.622C208.114 135.459 208.52 133.147 208.195 131.876C207.871 130.605 208.783 130.288 209.446 131.045Z" fill="#FFA8A7"/>
<path d="M252 116.484C250.272 116.482 248.616 115.795 247.394 114.573C246.172 113.351 245.485 111.695 245.483 109.967V94.6693C247.211 94.671 248.868 95.3582 250.089 96.5799C251.311 97.8016 251.998 99.4581 252 101.186V116.484Z" fill="#263238"/>
<path d="M245.274 95.2033L247.978 93.7566C247.892 93.5762 247.771 93.4148 247.622 93.2824C247.472 93.1499 247.298 93.0491 247.108 92.9859C246.919 92.9228 246.718 92.8986 246.519 92.9149C246.32 92.9312 246.127 92.9876 245.95 93.0806C245.585 93.2789 245.311 93.6105 245.185 94.006C245.059 94.4016 245.091 94.8306 245.274 95.2033V95.2033Z" fill="#263238"/>
<path d="M68.0402 30.5168L63.3961 33.2208C63.4227 33.0168 63.4362 32.8114 63.4367 32.6057V31.2537C63.4367 28.8606 61.7602 27.8737 59.6849 29.0905C58.7949 29.6349 58.0338 30.366 57.4541 31.2334C57.1093 28.2319 54.7501 27.1098 51.8838 28.766C48.7878 30.5506 46.273 34.9041 46.273 38.4801V40.5081C46.2539 41.3097 46.4181 42.105 46.753 42.8335L42.8998 45.0576C42.2956 45.4487 41.7914 45.9759 41.4275 46.5968C41.0636 47.2178 40.8501 47.9154 40.8042 48.6336C40.8042 49.9856 41.7371 50.4926 42.8863 49.8301L68.0267 35.3164C68.6318 34.9216 69.1352 34.3895 69.4958 33.7634C69.8564 33.1373 70.0641 32.4349 70.102 31.7133C70.1156 30.3884 69.1962 29.8408 68.0402 30.5168Z" fill="#EBEBEB"/>
<g style="mix-blend-mode:saturation">
<rect width="289" height="264" fill="#0D6EFD"/>
</g>
</g>
</g>
<defs>
<filter id="filter0_d_68_179" x="-97" y="-200" width="475" height="912" filterUnits="userSpaceOnUse" color-interpolation-filters="sRGB">
<feFlood flood-opacity="0" result="BackgroundImageFix"/>
<feColorMatrix in="SourceAlpha" type="matrix" values="0 0 0 0 0 0 0 0 0 0 0 0 0 0 0 0 0 0 127 0" result="hardAlpha"/>
<feOffset dy="4"/>
<feGaussianBlur stdDeviation="25"/>
<feColorMatrix type="matrix" values="0 0 0 0 0 0 0 0 0 0 0 0 0 0 0 0 0 0 0.25 0"/>
<feBlend mode="normal" in2="BackgroundImageFix" result="effect1_dropShadow_68_179"/>
<feBlend mode="normal" in="SourceGraphic" in2="effect1_dropShadow_68_179" result="shape"/>
</filter>
<clipPath id="clip0_68_179">
<rect x="-47" y="-154" width="375" height="812" rx="20" fill="white"/>
</clipPath>
</defs>
</svg>
